<?xml version="1.0" encoding="UTF-8"?>
<!DOCTYPE svg PUBLIC "-//W3C//DTD SVG 1.1//EN" "http://www.w3.org/Graphics/SVG/1.1/DTD/svg11.dtd">
<svg xmlns="http://www.w3.org/2000/svg" version="1.1" width="330px" height="330px" style="shape-rendering:geometricPrecision; text-rendering:geometricPrecision; image-rendering:optimizeQuality; fill-rule:evenodd; clip-rule:evenodd" xmlns:xlink="http://www.w3.org/1999/xlink">
<g><path style="opacity:1" fill="#d4e0e0" d="M 59.5,-0.5 C 59.8333,-0.5 60.1667,-0.5 60.5,-0.5C 60.3147,0.170143 59.9813,0.170143 59.5,-0.5 Z"/></g>
<g><path style="opacity:1" fill="#7ca1a6" d="M 156.5,-0.5 C 191.167,-0.5 225.833,-0.5 260.5,-0.5C 289.262,17.5946 312.262,41.2612 329.5,70.5C 329.5,81.1667 329.5,91.8333 329.5,102.5C 327.631,100.365 326.964,97.6981 327.5,94.5C 322.833,94.5 318.167,94.5 313.5,94.5C 313.5,91.8333 313.5,89.1667 313.5,86.5C 308.5,86.5 303.5,86.5 298.5,86.5C 298.5,83.8333 298.5,81.1667 298.5,78.5C 293.833,78.5 289.167,78.5 284.5,78.5C 284.5,75.8333 284.5,73.1667 284.5,70.5C 279.833,70.5 275.167,70.5 270.5,70.5C 270.5,67.8333 270.5,65.1667 270.5,62.5C 265.5,62.5 260.5,62.5 255.5,62.5C 255.5,60.1667 255.5,57.8333 255.5,55.5C 251.154,55.6657 246.821,55.499 242.5,55C 241.565,52.6194 241.232,50.1194 241.5,47.5C 236.833,47.5 232.167,47.5 227.5,47.5C 227.5,44.8333 227.5,42.1667 227.5,39.5C 222.833,39.5 218.167,39.5 213.5,39.5C 213.5,36.8333 213.5,34.1667 213.5,31.5C 208.5,31.5 203.5,31.5 198.5,31.5C 198.5,28.8333 198.5,26.1667 198.5,23.5C 193.833,23.5 189.167,23.5 184.5,23.5C 184.5,20.8333 184.5,18.1667 184.5,15.5C 179.833,15.5 175.167,15.5 170.5,15.5C 170.5,12.8333 170.5,10.1667 170.5,7.5C 165.833,7.5 161.167,7.5 156.5,7.5C 156.5,4.83333 156.5,2.16667 156.5,-0.5 Z"/></g>
<g><path style="opacity:1" fill="#d8e3e4" d="M 57.5,1.5 C 57.8417,0.661754 58.5084,0.32842 59.5,0.5C 59.1583,1.33825 58.4916,1.67158 57.5,1.5 Z"/></g>
<g><path style="opacity:1" fill="#e1e8e9" d="M 55.5,2.5 C 55.8417,1.66175 56.5084,1.32842 57.5,1.5C 57.1583,2.33825 56.4916,2.67158 55.5,2.5 Z"/></g>
<g><path style="opacity:1" fill="#e4e9e8" d="M 55.5,2.5 C 54.8333,3.16667 54.8333,3.16667 55.5,2.5 Z"/></g>
<g><path style="opacity:1" fill="#e1e8e9" d="M 52.5,4.5 C 52.8417,3.66175 53.5084,3.32842 54.5,3.5C 54.1583,4.33825 53.4916,4.67158 52.5,4.5 Z"/></g>
<g><path style="opacity:1" fill="#dce4e3" d="M 52.5,4.5 C 51.8333,5.16667 51.8333,5.16667 52.5,4.5 Z"/></g>
<g><path style="opacity:1" fill="#dbe5e6" d="M 49.5,6.5 C 49.8417,5.66175 50.5084,5.32842 51.5,5.5C 51.1583,6.33825 50.4916,6.67158 49.5,6.5 Z"/></g>
<g><path style="opacity:1" fill="#d4e0e0" d="M 49.5,6.5 C 48.8333,7.16667 48.8333,7.16667 49.5,6.5 Z"/></g>
<g><path style="opacity:1" fill="#dde7e8" d="M 46.5,8.5 C 46.8417,7.66175 47.5084,7.32842 48.5,7.5C 48.1583,8.33825 47.4916,8.67158 46.5,8.5 Z"/></g>
<g><path style="opacity:1" fill="#ebefee" d="M 46.5,8.5 C 45.8333,9.16667 45.8333,9.16667 46.5,8.5 Z"/></g>
<g><path style="opacity:1" fill="#dce4e3" d="M 45.5,9.5 C 44.8333,10.1667 44.8333,10.1667 45.5,9.5 Z"/></g>
<g><path style="opacity:1" fill="#d4e0e0" d="M 44.5,10.5 C 43.8333,11.1667 43.8333,11.1667 44.5,10.5 Z"/></g>
<g><path style="opacity:1" fill="#dde7e8" d="M 41.5,12.5 C 41.8417,11.6618 42.5084,11.3284 43.5,11.5C 43.1583,12.3382 42.4916,12.6716 41.5,12.5 Z"/></g>
<g><path style="opacity:1" fill="#ebefee" d="M 41.5,12.5 C 40.8333,13.1667 40.8333,13.1667 41.5,12.5 Z"/></g>
<g><path style="opacity:1" fill="#e4e9e8" d="M 40.5,13.5 C 39.8333,14.1667 39.8333,14.1667 40.5,13.5 Z"/></g>
<g><path style="opacity:1" fill="#d4e0e0" d="M 39.5,14.5 C 38.8333,15.1667 38.8333,15.1667 39.5,14.5 Z"/></g>
<g><path style="opacity:1" fill="#dde7e8" d="M 36.5,16.5 C 36.8417,15.6618 37.5084,15.3284 38.5,15.5C 38.1583,16.3382 37.4916,16.6716 36.5,16.5 Z"/></g>
<g><path style="opacity:1" fill="#f3f5f4" d="M 36.5,16.5 C 35.8333,17.1667 35.8333,17.1667 36.5,16.5 Z"/></g>
<g><path style="opacity:1" fill="#ebefee" d="M 35.5,17.5 C 34.8333,18.1667 34.8333,18.1667 35.5,17.5 Z"/></g>
<g><path style="opacity:1" fill="#dce4e3" d="M 34.5,18.5 C 33.8333,19.1667 33.8333,19.1667 34.5,18.5 Z"/></g>
<g><path style="opacity:1" fill="#d4e0e0" d="M 33.5,19.5 C 32.8333,20.1667 32.8333,20.1667 33.5,19.5 Z"/></g>
<g><path style="opacity:1" fill="#d4e0e0" d="M 32.5,20.5 C 31.8333,21.1667 31.8333,21.1667 32.5,20.5 Z"/></g>
<g><path style="opacity:1" fill="#cedede" d="M 31.5,21.5 C 30.8333,22.1667 30.8333,22.1667 31.5,21.5 Z"/></g>
<g><path style="opacity:1" fill="#dde7e8" d="M 28.5,23.5 C 28.8417,22.6618 29.5084,22.3284 30.5,22.5C 30.1583,23.3382 29.4916,23.6716 28.5,23.5 Z"/></g>
<g><path style="opacity:1" fill="#f3f5f4" d="M 28.5,23.5 C 27.8333,24.1667 27.8333,24.1667 28.5,23.5 Z"/></g>
<g><path style="opacity:1" fill="#ebefee" d="M 27.5,24.5 C 26.8333,25.1667 26.8333,25.1667 27.5,24.5 Z"/></g>
<g><path style="opacity:1" fill="#ebefee" d="M 26.5,25.5 C 25.8333,26.1667 25.8333,26.1667 26.5,25.5 Z"/></g>
<g><path style="opacity:1" fill="#dce4e3" d="M 25.5,26.5 C 24.8333,27.1667 24.8333,27.1667 25.5,26.5 Z"/></g>
<g><path style="opacity:1" fill="#dce4e3" d="M 24.5,27.5 C 23.8333,28.1667 23.8333,28.1667 24.5,27.5 Z"/></g>
<g><path style="opacity:1" fill="#d4e0e0" d="M 23.5,28.5 C 22.8333,29.1667 22.8333,29.1667 23.5,28.5 Z"/></g>
<g><path style="opacity:1" fill="#d4e0e0" d="M 22.5,29.5 C 21.8333,30.1667 21.8333,30.1667 22.5,29.5 Z"/></g>
<g><path style="opacity:1" fill="#dce4e3" d="M 21.5,30.5 C 20.8333,31.1667 20.8333,31.1667 21.5,30.5 Z"/></g>
<g><path style="opacity:1" fill="#ebefee" d="M 20.5,31.5 C 19.8333,32.1667 19.8333,32.1667 20.5,31.5 Z"/></g>
<g><path style="opacity:1" fill="#ebefee" d="M 19.5,32.5 C 18.8333,33.1667 18.8333,33.1667 19.5,32.5 Z"/></g>
<g><path style="opacity:1" fill="#dbe5e6" d="M 18.5,33.5 C 18.6716,34.4916 18.3382,35.1583 17.5,35.5C 17.3284,34.5084 17.6618,33.8417 18.5,33.5 Z"/></g>
<g><path style="opacity:1" fill="#cedede" d="M 17.5,35.5 C 16.8333,36.1667 16.8333,36.1667 17.5,35.5 Z"/></g>
<g><path style="opacity:1" fill="#d4e0e0" d="M 16.5,36.5 C 15.8333,37.1667 15.8333,37.1667 16.5,36.5 Z"/></g>
<g><path style="opacity:1" fill="#dce4e3" d="M 15.5,37.5 C 14.8333,38.1667 14.8333,38.1667 15.5,37.5 Z"/></g>
<g><path style="opacity:1" fill="#e4e9e8" d="M 14.5,38.5 C 13.8333,39.1667 13.8333,39.1667 14.5,38.5 Z"/></g>
<g><path style="opacity:1" fill="#ebefee" d="M 13.5,39.5 C 12.8333,40.1667 12.8333,40.1667 13.5,39.5 Z"/></g>
<g><path style="opacity:1" fill="#f3f5f4" d="M 12.5,40.5 C 11.8333,41.1667 11.8333,41.1667 12.5,40.5 Z"/></g>
<g><path style="opacity:1" fill="#f7f8f7" d="M 320.5,41.5 C 319.833,40.1667 319.833,40.1667 320.5,41.5 Z"/></g>
<g><path style="opacity:1" fill="#fcfdfc" d="M 320.5,41.5 C 321.833,42.1667 321.833,42.1667 320.5,41.5 Z"/></g>
<g><path style="opacity:1" fill="#dde7e8" d="M 11.5,41.5 C 11.6716,42.4916 11.3382,43.1583 10.5,43.5C 10.3284,42.5084 10.6618,41.8417 11.5,41.5 Z"/></g>
<g><path style="opacity:1" fill="#dce4e3" d="M 10.5,43.5 C 9.83333,44.1667 9.83333,44.1667 10.5,43.5 Z"/></g>
<g><path style="opacity:1" fill="#e4e9e8" d="M 9.5,44.5 C 8.83333,45.1667 8.83333,45.1667 9.5,44.5 Z"/></g>
<g><path style="opacity:1" fill="#dbe5e6" d="M 8.5,45.5 C 8.67158,46.4916 8.33825,47.1583 7.5,47.5C 7.32842,46.5084 7.66175,45.8417 8.5,45.5 Z"/></g>
<g><path style="opacity:1" fill="#d4e0e0" d="M 7.5,47.5 C 6.83333,48.1667 6.83333,48.1667 7.5,47.5 Z"/></g>
<g><path style="opacity:1" fill="#dce4e3" d="M 6.5,48.5 C 5.83333,49.1667 5.83333,49.1667 6.5,48.5 Z"/></g>
<g><path style="opacity:1" fill="#ebefee" d="M 5.5,49.5 C 4.83333,50.1667 4.83333,50.1667 5.5,49.5 Z"/></g>
<g><path style="opacity:1" fill="#dde7e8" d="M 4.5,50.5 C 4.67158,51.4916 4.33825,52.1583 3.5,52.5C 3.32842,51.5084 3.66175,50.8417 4.5,50.5 Z"/></g>
<g><path style="opacity:1" fill="#d4e0e0" d="M 3.5,52.5 C 2.83333,53.1667 2.83333,53.1667 3.5,52.5 Z"/></g>
<g><path style="opacity:1" fill="#e4e9e8" d="M 2.5,53.5 C 1.83333,54.1667 1.83333,54.1667 2.5,53.5 Z"/></g>
<g><path style="opacity:1" fill="#f1f3f2" d="M 1.5,54.5 C 0.833333,55.1667 0.833333,55.1667 1.5,54.5 Z"/></g>
<g><path style="opacity:1" fill="#74898e" d="M -0.5,56.5 C 0.833333,57.1667 0.833333,57.1667 -0.5,56.5 Z"/></g>
<g><path style="opacity:1" fill="#ece9e0" d="M -0.5,62.5 C 4.5,62.5 9.5,62.5 14.5,62.5C 14.5,65.1667 14.5,67.8333 14.5,70.5C 19.1667,70.5 23.8333,70.5 28.5,70.5C 28.5,72.8333 28.5,75.1667 28.5,77.5C 30.7354,77.2053 32.7354,77.5386 34.5,78.5C 34.5,81.1667 34.5,83.8333 34.5,86.5C 36.8333,86.5 39.1667,86.5 41.5,86.5C 41.5,89.1667 41.5,91.8333 41.5,94.5C 36.8333,94.5 32.1667,94.5 27.5,94.5C 27.5,91.8333 27.5,89.1667 27.5,86.5C 25.1667,86.5 22.8333,86.5 20.5,86.5C 20.5,83.8333 20.5,81.1667 20.5,78.5C 13.5,78.5 6.5,78.5 -0.5,78.5C -0.5,73.1667 -0.5,67.8333 -0.5,62.5 Z"/></g>
<g><path style="opacity:1" fill="#d3d4d4" d="M 213.5,94.5 C 215.607,93.5318 217.941,93.1984 220.5,93.5C 220.5,91.1667 220.5,88.8333 220.5,86.5C 222.833,86.5 225.167,86.5 227.5,86.5C 227.5,83.8333 227.5,81.1667 227.5,78.5C 225.167,78.5 222.833,78.5 220.5,78.5C 220.5,75.8333 220.5,73.1667 220.5,70.5C 218.167,70.5 215.833,70.5 213.5,70.5C 213.5,73.1667 213.5,75.8333 213.5,78.5C 211.167,78.5 208.833,78.5 206.5,78.5C 206.5,81.1667 206.5,83.8333 206.5,86.5C 201.5,86.5 196.5,86.5 191.5,86.5C 191.5,88.8333 191.5,91.1667 191.5,93.5C 186.833,93.5 182.167,93.5 177.5,93.5C 177.5,96.1667 177.5,98.8333 177.5,101.5C 172.833,101.5 168.167,101.5 163.5,101.5C 163.5,104.167 163.5,106.833 163.5,109.5C 170.5,109.5 177.5,109.5 184.5,109.5C 170.324,110.69 155.991,110.69 141.5,109.5C 141.5,107.167 141.5,104.833 141.5,102.5C 137.154,102.666 132.821,102.499 128.5,102C 127.167,99.3333 127.167,96.6667 128.5,94C 137.827,93.5002 147.161,93.3335 156.5,93.5C 156.5,91.1667 156.5,88.8333 156.5,86.5C 161.167,86.1667 165.833,85.8333 170.5,85.5C 170.5,83.1667 170.5,80.8333 170.5,78.5C 175.181,78.3314 179.848,77.9981 184.5,77.5C 184.5,75.1667 184.5,72.8333 184.5,70.5C 189.167,70.5 193.833,70.5 198.5,70.5C 198.232,67.8806 198.565,65.3806 199.5,63C 209.161,62.5002 218.828,62.3335 228.5,62.5C 228.5,65.1667 228.5,67.8333 228.5,70.5C 230.833,70.5 233.167,70.5 235.5,70.5C 235.666,75.5111 235.499,80.5111 235,85.5C 232.959,86.4231 230.792,86.7564 228.5,86.5C 228.768,89.1194 228.435,91.6194 227.5,94C 222.845,94.4992 218.179,94.6658 213.5,94.5 Z"/></g>
<g><path style="opacity:1" fill="#ede9e0" d="M 213.5,94.5 C 211.167,94.5 208.833,94.5 206.5,94.5C 206.5,96.8333 206.5,99.1667 206.5,101.5C 201.637,101.181 196.97,101.514 192.5,102.5C 192.5,104.833 192.5,107.167 192.5,109.5C 189.833,109.5 187.167,109.5 184.5,109.5C 177.5,109.5 170.5,109.5 163.5,109.5C 163.5,106.833 163.5,104.167 163.5,101.5C 168.167,101.5 172.833,101.5 177.5,101.5C 177.5,98.8333 177.5,96.1667 177.5,93.5C 182.167,93.5 186.833,93.5 191.5,93.5C 191.5,91.1667 191.5,88.8333 191.5,86.5C 196.5,86.5 201.5,86.5 206.5,86.5C 206.5,83.8333 206.5,81.1667 206.5,78.5C 208.833,78.5 211.167,78.5 213.5,78.5C 213.5,75.8333 213.5,73.1667 213.5,70.5C 215.833,70.5 218.167,70.5 220.5,70.5C 220.5,73.1667 220.5,75.8333 220.5,78.5C 222.833,78.5 225.167,78.5 227.5,78.5C 227.5,81.1667 227.5,83.8333 227.5,86.5C 225.167,86.5 222.833,86.5 220.5,86.5C 220.5,88.8333 220.5,91.1667 220.5,93.5C 217.941,93.1984 215.607,93.5318 213.5,94.5 Z"/></g>
<g><path style="opacity:1" fill="#d5d6d5" d="M -0.5,78.5 C 6.5,78.5 13.5,78.5 20.5,78.5C 20.5,81.1667 20.5,83.8333 20.5,86.5C 22.8333,86.5 25.1667,86.5 27.5,86.5C 27.5,89.1667 27.5,91.8333 27.5,94.5C 32.1667,94.5 36.8333,94.5 41.5,94.5C 41.5,91.8333 41.5,89.1667 41.5,86.5C 39.1667,86.5 36.8333,86.5 34.5,86.5C 34.5,83.8333 34.5,81.1667 34.5,78.5C 35.4682,80.6074 35.8016,82.9407 35.5,85.5C 37.8333,85.5 40.1667,85.5 42.5,85.5C 42.5,88.1667 42.5,90.8333 42.5,93.5C 44.8333,93.5 47.1667,93.5 49.5,93.5C 49.5,96.1667 49.5,98.8333 49.5,101.5C 54.1785,101.334 58.8452,101.501 63.5,102C 64.435,104.381 64.7683,106.881 64.5,109.5C 71.5,109.5 78.5,109.5 85.5,109.5C 85.5,112.167 85.5,114.833 85.5,117.5C 70.8333,117.5 56.1667,117.5 41.5,117.5C 41.5,115.167 41.5,112.833 41.5,110.5C 36.8478,110.002 32.1811,109.669 27.5,109.5C 27.5,107.167 27.5,104.833 27.5,102.5C 25.1667,102.5 22.8333,102.5 20.5,102.5C 20.5,99.8333 20.5,97.1667 20.5,94.5C 18.1667,94.5 15.8333,94.5 13.5,94.5C 13.5,91.8333 13.5,89.1667 13.5,86.5C 11.1667,86.5 8.83333,86.5 6.5,86.5C 4.16667,86.5 1.83333,86.5 -0.5,86.5C -0.5,83.8333 -0.5,81.1667 -0.5,78.5 Z"/></g>
<g><path style="opacity:1" fill="#7aa1a5" d="M -0.5,86.5 C 1.83333,86.5 4.16667,86.5 6.5,86.5C 6.5,88.8333 6.5,91.1667 6.5,93.5C 4.16667,93.5 1.83333,93.5 -0.5,93.5C -0.5,91.1667 -0.5,88.8333 -0.5,86.5 Z"/></g>
<g><path style="opacity:1" fill="#cdd1d1" d="M 213.5,94.5 C 213.5,97.1667 213.5,99.8333 213.5,102.5C 206.5,102.5 199.5,102.5 192.5,102.5C 196.97,101.514 201.637,101.181 206.5,101.5C 206.5,99.1667 206.5,96.8333 206.5,94.5C 208.833,94.5 211.167,94.5 213.5,94.5 Z"/></g>
<g><path style="opacity:1" fill="#d1d3d3" d="M -0.5,101.5 C 1.83333,101.5 4.16667,101.5 6.5,101.5C 6.5,107.167 6.5,112.833 6.5,118.5C 4.16667,118.5 1.83333,118.5 -0.5,118.5C -0.5,112.833 -0.5,107.167 -0.5,101.5 Z"/></g>
<g><path style="opacity:1" fill="#9cbec3" d="M 70.5,173.5 C 70.5,175.833 70.5,178.167 70.5,180.5C 68.1667,180.5 65.8333,180.5 63.5,180.5C 63.5,183.167 63.5,185.833 63.5,188.5C 58.8333,188.5 54.1667,188.5 49.5,188.5C 49.5,191.167 49.5,193.833 49.5,196.5C 47.1667,196.5 44.8333,196.5 42.5,196.5C 42.5,193.833 42.5,191.167 42.5,188.5C 40.1667,188.5 37.8333,188.5 35.5,188.5C 35.5,185.833 35.5,183.167 35.5,180.5C 33.1667,180.5 30.8333,180.5 28.5,180.5C 28.5,175.167 28.5,169.833 28.5,164.5C 26.1667,164.5 23.8333,164.5 21.5,164.5C 21.5,159.167 21.5,153.833 21.5,148.5C 19.1667,148.5 16.8333,148.5 14.5,148.5C 14.7683,145.881 14.435,143.381 13.5,141C 8.8452,140.501 4.17853,140.334 -0.5,140.5C -0.5,138.167 -0.5,135.833 -0.5,133.5C 2.16667,133.5 4.83333,133.5 7.5,133.5C 7.5,131.167 7.5,128.833 7.5,126.5C 13.9049,127.594 16.2382,124.927 14.5,118.5C 16.5,118.5 18.5,118.5 20.5,118.5C 20.5,121.167 20.5,123.833 20.5,126.5C 22.8333,126.5 25.1667,126.5 27.5,126.5C 27.5,128.833 27.5,131.167 27.5,133.5C 29.8333,133.5 32.1667,133.5 34.5,133.5C 34.5,136.167 34.5,138.833 34.5,141.5C 36.8333,141.5 39.1667,141.5 41.5,141.5C 41.5,144.167 41.5,146.833 41.5,149.5C 43.8333,149.5 46.1667,149.5 48.5,149.5C 48.5,152.167 48.5,154.833 48.5,157.5C 51.1667,157.5 53.8333,157.5 56.5,157.5C 56.5,160.167 56.5,162.833 56.5,165.5C 58.8333,165.5 61.1667,165.5 63.5,165.5C 63.5,168.167 63.5,170.833 63.5,173.5C 65.8333,173.5 68.1667,173.5 70.5,173.5 Z"/></g>
<g><path style="opacity:1" fill="#f8f6de" d="M 142.5,125.5 C 147.167,125.5 151.833,125.5 156.5,125.5C 156.5,128.167 156.5,130.833 156.5,133.5C 161.167,133.5 165.833,133.5 170.5,133.5C 170.232,136.119 170.565,138.619 171.5,141C 176.155,141.499 180.821,141.666 185.5,141.5C 185.5,144.167 185.5,146.833 185.5,149.5C 187.5,149.5 189.5,149.5 191.5,149.5C 191.5,152.167 191.5,154.833 191.5,157.5C 193.833,157.5 196.167,157.5 198.5,157.5C 198.5,160.167 198.5,162.833 198.5,165.5C 201.167,165.5 203.833,165.5 206.5,165.5C 206.5,167.833 206.5,170.167 206.5,172.5C 208.833,172.5 211.167,172.5 213.5,172.5C 213.5,175.167 213.5,177.833 213.5,180.5C 211.167,180.5 208.833,180.5 206.5,180.5C 206.5,183.167 206.5,185.833 206.5,188.5C 204.167,188.5 201.833,188.5 199.5,188.5C 199.5,185.833 199.5,183.167 199.5,180.5C 197.167,180.5 194.833,180.5 192.5,180.5C 192.5,177.833 192.5,175.167 192.5,172.5C 190.167,172.5 187.833,172.5 185.5,172.5C 185.5,169.833 185.5,167.167 185.5,164.5C 182.833,164.5 180.167,164.5 177.5,164.5C 177.5,167.5 177.5,170.5 177.5,173.5C 175.167,173.5 172.833,173.5 170.5,173.5C 170.5,170.833 170.5,168.167 170.5,165.5C 168.167,165.5 165.833,165.5 163.5,165.5C 163.5,162.833 163.5,160.167 163.5,157.5C 161.167,157.5 158.833,157.5 156.5,157.5C 156.5,154.833 156.5,152.167 156.5,149.5C 154.167,149.5 151.833,149.5 149.5,149.5C 149.5,146.833 149.5,144.167 149.5,141.5C 147.167,141.5 144.833,141.5 142.5,141.5C 142.5,138.833 142.5,136.167 142.5,133.5C 140.167,133.5 137.833,133.5 135.5,133.5C 135.5,130.833 135.5,128.167 135.5,125.5C 133.167,125.5 130.833,125.5 128.5,125.5C 128.5,123.167 128.5,120.833 128.5,118.5C 132.833,118.5 137.167,118.5 141.5,118.5C 141.198,121.059 141.532,123.393 142.5,125.5 Z"/></g>
<g><path style="opacity:1" fill="#c8c7c1" d="M 142.5,125.5 C 141.532,123.393 141.198,121.059 141.5,118.5C 137.167,118.5 132.833,118.5 128.5,118.5C 128.5,120.833 128.5,123.167 128.5,125.5C 130.833,125.5 133.167,125.5 135.5,125.5C 135.5,128.167 135.5,130.833 135.5,133.5C 137.833,133.5 140.167,133.5 142.5,133.5C 142.5,136.167 142.5,138.833 142.5,141.5C 144.833,141.5 147.167,141.5 149.5,141.5C 149.5,144.167 149.5,146.833 149.5,149.5C 151.833,149.5 154.167,149.5 156.5,149.5C 156.5,152.167 156.5,154.833 156.5,157.5C 158.833,157.5 161.167,157.5 163.5,157.5C 163.5,160.167 163.5,162.833 163.5,165.5C 165.833,165.5 168.167,165.5 170.5,165.5C 170.5,168.167 170.5,170.833 170.5,173.5C 172.833,173.5 175.167,173.5 177.5,173.5C 177.5,170.5 177.5,167.5 177.5,164.5C 180.167,164.5 182.833,164.5 185.5,164.5C 185.5,167.167 185.5,169.833 185.5,172.5C 187.833,172.5 190.167,172.5 192.5,172.5C 192.5,175.167 192.5,177.833 192.5,180.5C 194.833,180.5 197.167,180.5 199.5,180.5C 199.5,183.167 199.5,185.833 199.5,188.5C 201.833,188.5 204.167,188.5 206.5,188.5C 206.5,185.833 206.5,183.167 206.5,180.5C 208.833,180.5 211.167,180.5 213.5,180.5C 213.5,183.167 213.5,185.833 213.5,188.5C 215.833,188.5 218.167,188.5 220.5,188.5C 220.5,191.167 220.5,193.833 220.5,196.5C 222.833,196.5 225.167,196.5 227.5,196.5C 227.5,199.167 227.5,201.833 227.5,204.5C 229.833,204.5 232.167,204.5 234.5,204.5C 234.5,207.167 234.5,209.833 234.5,212.5C 229.833,212.5 225.167,212.5 220.5,212.5C 220.5,209.833 220.5,207.167 220.5,204.5C 218.167,204.5 215.833,204.5 213.5,204.5C 213.5,201.833 213.5,199.167 213.5,196.5C 211.167,196.5 208.833,196.5 206.5,196.5C 206.5,199.167 206.5,201.833 206.5,204.5C 204.167,204.5 201.833,204.5 199.5,204.5C 199.5,201.833 199.5,199.167 199.5,196.5C 197.167,196.5 194.833,196.5 192.5,196.5C 192.5,193.833 192.5,191.167 192.5,188.5C 190.167,188.5 187.833,188.5 185.5,188.5C 185.5,185.833 185.5,183.167 185.5,180.5C 180.5,180.5 175.5,180.5 170.5,180.5C 170.5,183.167 170.5,185.833 170.5,188.5C 172.833,188.5 175.167,188.5 177.5,188.5C 177.5,191.167 177.5,193.833 177.5,196.5C 172.833,196.5 168.167,196.5 163.5,196.5C 163.5,193.833 163.5,191.167 163.5,188.5C 163.5,185.833 163.5,183.167 163.5,180.5C 161.167,180.5 158.833,180.5 156.5,180.5C 156.5,177.833 156.5,175.167 156.5,172.5C 154.167,172.5 151.833,172.5 149.5,172.5C 149.5,175.167 149.5,177.833 149.5,180.5C 147.167,180.5 144.833,180.5 142.5,180.5C 140.167,180.5 137.833,180.5 135.5,180.5C 135.5,177.833 135.5,175.167 135.5,172.5C 132.833,172.5 130.167,172.5 127.5,172.5C 127.5,177.833 127.5,183.167 127.5,188.5C 125.167,188.5 122.833,188.5 120.5,188.5C 120.5,185.833 120.5,183.167 120.5,180.5C 118.167,180.5 115.833,180.5 113.5,180.5C 113.5,177.833 113.5,175.167 113.5,172.5C 115.833,172.5 118.167,172.5 120.5,172.5C 120.5,170.167 120.5,167.833 120.5,165.5C 115.833,165.5 111.167,165.5 106.5,165.5C 106.5,167.833 106.5,170.167 106.5,172.5C 104.167,172.5 101.833,172.5 99.5,172.5C 97.1667,172.5 94.8333,172.5 92.5,172.5C 92.5,170.167 92.5,167.833 92.5,165.5C 90.1667,165.5 87.8333,165.5 85.5,165.5C 87.6074,164.532 89.9407,164.198 92.5,164.5C 97.1667,164.5 101.833,164.5 106.5,164.5C 106.5,162.167 106.5,159.833 106.5,157.5C 108.833,157.5 111.167,157.5 113.5,157.5C 113.5,154.833 113.5,152.167 113.5,149.5C 115.833,149.5 118.167,149.5 120.5,149.5C 120.5,144.167 120.5,138.833 120.5,133.5C 120.194,130.615 120.527,127.948 121.5,125.5C 121.5,128.167 121.5,130.833 121.5,133.5C 123.5,133.5 125.5,133.5 127.5,133.5C 127.5,130.833 127.5,128.167 127.5,125.5C 127.5,122.833 127.5,120.167 127.5,117.5C 132.5,117.5 137.5,117.5 142.5,117.5C 142.5,120.167 142.5,122.833 142.5,125.5 Z"/></g>
<g><path style="opacity:1" fill="#f9f6de" d="M 121.5,125.5 C 123.5,125.5 125.5,125.5 127.5,125.5C 127.5,128.167 127.5,130.833 127.5,133.5C 125.5,133.5 123.5,133.5 121.5,133.5C 121.5,130.833 121.5,128.167 121.5,125.5 Z"/></g>
<g><path style="opacity:1" fill="#f7f5dd" d="M 120.5,133.5 C 120.5,138.833 120.5,144.167 120.5,149.5C 118.167,149.5 115.833,149.5 113.5,149.5C 113.5,152.167 113.5,154.833 113.5,157.5C 111.167,157.5 108.833,157.5 106.5,157.5C 106.5,159.833 106.5,162.167 106.5,164.5C 101.833,164.5 97.1667,164.5 92.5,164.5C 92.5,161.833 92.5,159.167 92.5,156.5C 94.8333,156.5 97.1667,156.5 99.5,156.5C 99.5,154.167 99.5,151.833 99.5,149.5C 101.833,149.5 104.167,149.5 106.5,149.5C 106.5,146.833 106.5,144.167 106.5,141.5C 108.833,141.5 111.167,141.5 113.5,141.5C 113.5,138.833 113.5,136.167 113.5,133.5C 115.833,133.5 118.167,133.5 120.5,133.5 Z"/></g>
<g><path style="opacity:1" fill="#d3d4d4" d="M 291.5,141.5 C 279.833,141.5 268.167,141.5 256.5,141.5C 256.5,144.167 256.5,146.833 256.5,149.5C 263.5,149.5 270.5,149.5 277.5,149.5C 277.5,152.167 277.5,154.833 277.5,157.5C 284.833,157.5 292.167,157.5 299.5,157.5C 299.5,160.167 299.5,162.833 299.5,165.5C 304.167,165.5 308.833,165.5 313.5,165.5C 313.5,168.167 313.5,170.833 313.5,173.5C 306.183,172.882 298.849,172.549 291.5,172.5C 291.5,170.167 291.5,167.833 291.5,165.5C 279.833,165.5 268.167,165.5 256.5,165.5C 256.5,167.833 256.5,170.167 256.5,172.5C 249.167,173.833 241.833,173.833 234.5,172.5C 234.5,170.167 234.5,167.833 234.5,165.5C 232.167,165.5 229.833,165.5 227.5,165.5C 227.334,160.156 227.501,154.823 228,149.5C 230.041,148.577 232.208,148.244 234.5,148.5C 234.5,146.167 234.5,143.833 234.5,141.5C 239.167,141.5 243.833,141.5 248.5,141.5C 248.5,138.833 248.5,136.167 248.5,133.5C 260.833,133.5 273.167,133.5 285.5,133.5C 285.5,135.833 285.5,138.167 285.5,140.5C 287.735,140.205 289.735,140.539 291.5,141.5 Z"/></g>
<g><path style="opacity:1" fill="#c8c7c1" d="M 156.5,149.5 C 156.5,146.833 156.5,144.167 156.5,141.5C 158.833,141.5 161.167,141.5 163.5,141.5C 163.5,144.167 163.5,146.833 163.5,149.5C 161.167,149.5 158.833,149.5 156.5,149.5 Z"/></g>
<g><path style="opacity:1" fill="#edeae0" d="M 291.5,141.5 C 291.833,141.5 292.167,141.5 292.5,141.5C 292.5,144.167 292.5,146.833 292.5,149.5C 297.167,149.5 301.833,149.5 306.5,149.5C 306.5,152.167 306.5,154.833 306.5,157.5C 308.833,157.5 311.167,157.5 313.5,157.5C 313.5,159.833 313.5,162.167 313.5,164.5C 315.833,164.5 318.167,164.5 320.5,164.5C 320.5,167.167 320.5,169.833 320.5,172.5C 322.833,172.5 325.167,172.5 327.5,172.5C 327.5,175.167 327.5,177.833 327.5,180.5C 325.167,180.5 322.833,180.5 320.5,180.5C 318.167,180.5 315.833,180.5 313.5,180.5C 313.5,178.167 313.5,175.833 313.5,173.5C 313.5,170.833 313.5,168.167 313.5,165.5C 308.833,165.5 304.167,165.5 299.5,165.5C 299.5,162.833 299.5,160.167 299.5,157.5C 292.167,157.5 284.833,157.5 277.5,157.5C 277.5,154.833 277.5,152.167 277.5,149.5C 270.5,149.5 263.5,149.5 256.5,149.5C 256.5,146.833 256.5,144.167 256.5,141.5C 268.167,141.5 279.833,141.5 291.5,141.5 Z"/></g>
<g><path style="opacity:1" fill="#d1d3d3" d="M 292.5,141.5 C 294.833,141.5 297.167,141.5 299.5,141.5C 299.5,143.833 299.5,146.167 299.5,148.5C 302.059,148.198 304.393,148.532 306.5,149.5C 301.833,149.5 297.167,149.5 292.5,149.5C 292.5,146.833 292.5,144.167 292.5,141.5 Z"/></g>
<g><path style="opacity:1" fill="#eeeae1" d="M 234.5,149.5 C 239.5,149.5 244.5,149.5 249.5,149.5C 249.5,152.167 249.5,154.833 249.5,157.5C 244.5,157.5 239.5,157.5 234.5,157.5C 234.5,154.833 234.5,152.167 234.5,149.5 Z"/></g>
<g><path style="opacity:1" fill="#9cbdc2" d="M 35.5,196.5 C 35.5,199.167 35.5,201.833 35.5,204.5C 33.1667,204.5 30.8333,204.5 28.5,204.5C 28.5,207.167 28.5,209.833 28.5,212.5C 23.5,212.5 18.5,212.5 13.5,212.5C 14.4491,207.26 14.7825,201.927 14.5,196.5C 12.1667,196.5 9.83333,196.5 7.5,196.5C 7.5,183.5 7.5,170.5 7.5,157.5C 9.5,157.5 11.5,157.5 13.5,157.5C 13.5,162.833 13.5,168.167 13.5,173.5C 15.8333,173.5 18.1667,173.5 20.5,173.5C 20.5,178.833 20.5,184.167 20.5,189.5C 22.8333,189.5 25.1667,189.5 27.5,189.5C 27.5,191.833 27.5,194.167 27.5,196.5C 30.1667,196.5 32.8333,196.5 35.5,196.5 Z"/></g>
<g><path style="opacity:1" fill="#d0dbcd" d="M 191.5,149.5 C 192.468,151.607 192.802,153.941 192.5,156.5C 194.833,156.5 197.167,156.5 199.5,156.5C 199.5,159.167 199.5,161.833 199.5,164.5C 202.059,164.198 204.393,164.532 206.5,165.5C 203.833,165.5 201.167,165.5 198.5,165.5C 198.5,162.833 198.5,160.167 198.5,157.5C 196.167,157.5 193.833,157.5 191.5,157.5C 191.5,154.833 191.5,152.167 191.5,149.5 Z"/></g>
<g><path style="opacity:1" fill="#d3d4d4" d="M 306.5,149.5 C 308.833,149.5 311.167,149.5 313.5,149.5C 313.5,151.833 313.5,154.167 313.5,156.5C 315.833,156.5 318.167,156.5 320.5,156.5C 320.5,159.167 320.5,161.833 320.5,164.5C 318.167,164.5 315.833,164.5 313.5,164.5C 313.5,162.167 313.5,159.833 313.5,157.5C 311.167,157.5 308.833,157.5 306.5,157.5C 306.5,154.833 306.5,152.167 306.5,149.5 Z"/></g>
<g><path style="opacity:1" fill="#91918e" d="M 127.5,156.5 C 130.167,156.5 132.833,156.5 135.5,156.5C 135.5,159.5 135.5,162.5 135.5,165.5C 132.833,165.5 130.167,165.5 127.5,165.5C 127.5,162.5 127.5,159.5 127.5,156.5 Z"/></g>
<g><path style="opacity:1" fill="#555756" d="M 128.5,157.5 C 130.5,157.5 132.5,157.5 134.5,157.5C 134.5,159.833 134.5,162.167 134.5,164.5C 132.5,164.5 130.5,164.5 128.5,164.5C 128.5,162.167 128.5,159.833 128.5,157.5 Z"/></g>
<g><path style="opacity:1" fill="#f8f5dd" d="M 85.5,165.5 C 87.8333,165.5 90.1667,165.5 92.5,165.5C 92.5,167.833 92.5,170.167 92.5,172.5C 90.1667,172.5 87.8333,172.5 85.5,172.5C 85.5,170.167 85.5,167.833 85.5,165.5 Z"/></g>
<g><path style="opacity:1" fill="#f8f5dd" d="M 113.5,180.5 C 111.167,180.5 108.833,180.5 106.5,180.5C 106.5,183.167 106.5,185.833 106.5,188.5C 104.167,188.5 101.833,188.5 99.5,188.5C 99.5,191.167 99.5,193.833 99.5,196.5C 94.8333,196.5 90.1667,196.5 85.5,196.5C 85.5,193.833 85.5,191.167 85.5,188.5C 87.5,188.5 89.5,188.5 91.5,188.5C 92.4731,186.052 92.8064,183.385 92.5,180.5C 94.8333,180.5 97.1667,180.5 99.5,180.5C 99.5,177.833 99.5,175.167 99.5,172.5C 101.833,172.5 104.167,172.5 106.5,172.5C 106.5,170.167 106.5,167.833 106.5,165.5C 111.167,165.5 115.833,165.5 120.5,165.5C 120.5,167.833 120.5,170.167 120.5,172.5C 118.167,172.5 115.833,172.5 113.5,172.5C 113.5,175.167 113.5,177.833 113.5,180.5 Z"/></g>
<g><path style="opacity:1" fill="#f6f4dd" d="M 149.5,172.5 C 147.167,172.5 144.833,172.5 142.5,172.5C 142.5,169.833 142.5,167.167 142.5,164.5C 144.833,164.5 147.167,164.5 149.5,164.5C 149.5,167.167 149.5,169.833 149.5,172.5 Z"/></g>
<g><path style="opacity:1" fill="#cfd2d2" d="M 320.5,164.5 C 322.857,164.337 325.19,164.503 327.5,165C 328.123,167.607 328.79,170.107 329.5,172.5C 329.5,177.833 329.5,183.167 329.5,188.5C 328.833,188.5 328.167,188.5 327.5,188.5C 327.5,185.833 327.5,183.167 327.5,180.5C 327.5,177.833 327.5,175.167 327.5,172.5C 325.167,172.5 322.833,172.5 320.5,172.5C 320.5,169.833 320.5,167.167 320.5,164.5 Z"/></g>
<g><path style="opacity:1" fill="#646766" d="M 77.5,172.5 C 77.5,175.167 77.5,177.833 77.5,180.5C 75.1667,180.5 72.8333,180.5 70.5,180.5C 70.5,178.167 70.5,175.833 70.5,173.5C 72.6074,172.532 74.9407,172.198 77.5,172.5 Z"/></g>
<g><path style="opacity:1" fill="#c3c3bc" d="M 85.5,165.5 C 85.5,167.833 85.5,170.167 85.5,172.5C 87.8333,172.5 90.1667,172.5 92.5,172.5C 92.5,175.167 92.5,177.833 92.5,180.5C 90.1667,180.5 87.8333,180.5 85.5,180.5C 85.5,178.167 85.5,175.833 85.5,173.5C 83.1667,173.5 80.8333,173.5 78.5,173.5C 78.5,175.833 78.5,178.167 78.5,180.5C 80.5,180.5 82.5,180.5 84.5,180.5C 84.5,183.167 84.5,185.833 84.5,188.5C 82.1667,188.5 79.8333,188.5 77.5,188.5C 77.5,186.167 77.5,183.833 77.5,181.5C 75.5,181.5 73.5,181.5 71.5,181.5C 71.5,183.833 71.5,186.167 71.5,188.5C 71.8064,191.385 71.4731,194.052 70.5,196.5C 70.5,193.833 70.5,191.167 70.5,188.5C 70.5,185.833 70.5,183.167 70.5,180.5C 72.8333,180.5 75.1667,180.5 77.5,180.5C 77.5,177.833 77.5,175.167 77.5,172.5C 79.8333,172.5 82.1667,172.5 84.5,172.5C 84.1984,169.941 84.5318,167.607 85.5,165.5 Z"/></g>
<g><path style="opacity:1" fill="#f7f4dd" d="M 85.5,180.5 C 85.1667,180.5 84.8333,180.5 84.5,180.5C 82.5,180.5 80.5,180.5 78.5,180.5C 78.5,178.167 78.5,175.833 78.5,173.5C 80.8333,173.5 83.1667,173.5 85.5,173.5C 85.5,175.833 85.5,178.167 85.5,180.5 Z"/></g>
<g><path style="opacity:1" fill="#5b5c5b" d="M 92.5,172.5 C 94.8333,172.5 97.1667,172.5 99.5,172.5C 99.5,175.167 99.5,177.833 99.5,180.5C 97.1667,180.5 94.8333,180.5 92.5,180.5C 92.5,177.833 92.5,175.167 92.5,172.5 Z"/></g>
<g><path style="opacity:1" fill="#8a8b88" d="M 135.5,180.5 C 134.532,178.393 134.198,176.059 134.5,173.5C 132.5,173.5 130.5,173.5 128.5,173.5C 128.5,178.5 128.5,183.5 128.5,188.5C 128.5,193.833 128.5,199.167 128.5,204.5C 127.512,199.36 127.179,194.026 127.5,188.5C 127.5,183.167 127.5,177.833 127.5,172.5C 130.167,172.5 132.833,172.5 135.5,172.5C 135.5,175.167 135.5,177.833 135.5,180.5 Z"/></g>
<g><path style="opacity:1" fill="#565757" d="M 135.5,180.5 C 137.265,181.461 139.265,181.795 141.5,181.5C 141.5,186.5 141.5,191.5 141.5,196.5C 139.5,196.5 137.5,196.5 135.5,196.5C 135.5,193.833 135.5,191.167 135.5,188.5C 133.167,188.5 130.833,188.5 128.5,188.5C 128.5,183.5 128.5,178.5 128.5,173.5C 130.5,173.5 132.5,173.5 134.5,173.5C 134.198,176.059 134.532,178.393 135.5,180.5 Z"/></g>
<g><path style="opacity:1" fill="#f7f4dd" d="M 149.5,172.5 C 151.833,172.5 154.167,172.5 156.5,172.5C 156.5,175.167 156.5,177.833 156.5,180.5C 154.167,180.5 151.833,180.5 149.5,180.5C 149.5,177.833 149.5,175.167 149.5,172.5 Z"/></g>
<g><path style="opacity:1" fill="#636463" d="M 70.5,180.5 C 70.5,183.167 70.5,185.833 70.5,188.5C 68.1667,188.5 65.8333,188.5 63.5,188.5C 63.5,185.833 63.5,183.167 63.5,180.5C 65.8333,180.5 68.1667,180.5 70.5,180.5 Z"/></g>
<g><path style="opacity:1" fill="#f9f7de" d="M 77.5,188.5 C 75.5,188.5 73.5,188.5 71.5,188.5C 71.5,186.167 71.5,183.833 71.5,181.5C 73.5,181.5 75.5,181.5 77.5,181.5C 77.5,183.833 77.5,186.167 77.5,188.5 Z"/></g>
<g><path style="opacity:1" fill="#c8c7c1" d="M 113.5,180.5 C 113.5,183.167 113.5,185.833 113.5,188.5C 111.167,188.5 108.833,188.5 106.5,188.5C 106.5,185.833 106.5,183.167 106.5,180.5C 108.833,180.5 111.167,180.5 113.5,180.5 Z"/></g>
<g><path style="opacity:1" fill="#565757" d="M 113.5,180.5 C 115.833,180.5 118.167,180.5 120.5,180.5C 120.5,183.167 120.5,185.833 120.5,188.5C 122.833,188.5 125.167,188.5 127.5,188.5C 127.179,194.026 127.512,199.36 128.5,204.5C 130.5,204.5 132.5,204.5 134.5,204.5C 134.5,207.167 134.5,209.833 134.5,212.5C 137.167,212.5 139.833,212.5 142.5,212.5C 142.5,207.167 142.5,201.833 142.5,196.5C 144.833,196.5 147.167,196.5 149.5,196.5C 149.5,201.833 149.5,207.167 149.5,212.5C 151.833,212.5 154.167,212.5 156.5,212.5C 156.5,215.167 156.5,217.833 156.5,220.5C 158.833,220.5 161.167,220.5 163.5,220.5C 164.473,218.052 164.806,215.385 164.5,212.5C 166.5,212.5 168.5,212.5 170.5,212.5C 170.5,217.833 170.5,223.167 170.5,228.5C 173.167,228.5 175.833,228.5 178.5,228.5C 178.5,230.833 178.5,233.167 178.5,235.5C 180.833,235.5 183.167,235.5 185.5,235.5C 185.5,240.833 185.5,246.167 185.5,251.5C 187.833,251.5 190.167,251.5 192.5,251.5C 192.5,254.167 192.5,256.833 192.5,259.5C 194.833,259.5 197.167,259.5 199.5,259.5C 199.5,267.5 199.5,275.5 199.5,283.5C 196.833,283.5 194.167,283.5 191.5,283.5C 191.5,278.167 191.5,272.833 191.5,267.5C 189.167,267.5 186.833,267.5 184.5,267.5C 184.5,264.833 184.5,262.167 184.5,259.5C 182.5,259.5 180.5,259.5 178.5,259.5C 178.5,256.833 178.5,254.167 178.5,251.5C 175.833,251.5 173.167,251.5 170.5,251.5C 170.5,256.833 170.5,262.167 170.5,267.5C 168.167,267.5 165.833,267.5 163.5,267.5C 163.5,264.833 163.5,262.167 163.5,259.5C 161.167,259.5 158.833,259.5 156.5,259.5C 156.5,262.167 156.5,264.833 156.5,267.5C 154.167,267.5 151.833,267.5 149.5,267.5C 148.527,269.948 148.194,272.615 148.5,275.5C 146.5,275.5 144.5,275.5 142.5,275.5C 142.5,272.833 142.5,270.167 142.5,267.5C 139.833,267.5 137.167,267.5 134.5,267.5C 134.5,269.833 134.5,272.167 134.5,274.5C 131.941,274.198 129.607,274.532 127.5,275.5C 125.167,275.5 122.833,275.5 120.5,275.5C 120.5,277.833 120.5,280.167 120.5,282.5C 115.833,282.5 111.167,282.5 106.5,282.5C 106.5,285.167 106.5,287.833 106.5,290.5C 106.5,290.833 106.5,291.167 106.5,291.5C 99.5,291.5 92.5,291.5 85.5,291.5C 80.8333,291.5 76.1667,291.5 71.5,291.5C 71.5,293.833 71.5,296.167 71.5,298.5C 64.1667,298.5 56.8333,298.5 49.5,298.5C 47.1667,298.5 44.8333,298.5 42.5,298.5C 42.5,296.167 42.5,293.833 42.5,291.5C 44.8333,291.5 47.1667,291.5 49.5,291.5C 49.5,283.5 49.5,275.5 49.5,267.5C 51.8333,267.5 54.1667,267.5 56.5,267.5C 56.5,262.167 56.5,256.833 56.5,251.5C 54.1667,251.5 51.8333,251.5 49.5,251.5C 49.5,254.167 49.5,256.833 49.5,259.5C 47.1667,259.5 44.8333,259.5 42.5,259.5C 42.5,264.833 42.5,270.167 42.5,275.5C 40.1667,275.5 37.8333,275.5 35.5,275.5C 35.5,280.833 35.5,286.167 35.5,291.5C 33.1667,291.5 30.8333,291.5 28.5,291.5C 28.5,293.833 28.5,296.167 28.5,298.5C 23.5,298.5 18.5,298.5 13.5,298.5C 11.863,296.525 10.1964,294.525 8.5,292.5C 6.55233,288.255 3.88566,284.589 0.5,281.5C 0.166667,281.5 -0.166667,281.5 -0.5,281.5C -0.5,263.167 -0.5,244.833 -0.5,226.5C 1.5,226.5 3.5,226.5 5.5,226.5C 5.32526,224.379 5.65859,222.379 6.5,220.5C 7.80163,219.193 9.13497,219.193 10.5,220.5C 11.5148,217.724 12.5148,215.057 13.5,212.5C 18.5,212.5 23.5,212.5 28.5,212.5C 28.5,209.833 28.5,207.167 28.5,204.5C 30.8333,204.5 33.1667,204.5 35.5,204.5C 35.5,201.833 35.5,199.167 35.5,196.5C 37.8333,196.5 40.1667,196.5 42.5,196.5C 44.8333,196.5 47.1667,196.5 49.5,196.5C 49.5,193.833 49.5,191.167 49.5,188.5C 54.1667,188.5 58.8333,188.5 63.5,188.5C 63.5,191.167 63.5,193.833 63.5,196.5C 65.8333,196.5 68.1667,196.5 70.5,196.5C 71.4731,194.052 71.8064,191.385 71.5,188.5C 73.5,188.5 75.5,188.5 77.5,188.5C 79.8333,188.5 82.1667,188.5 84.5,188.5C 84.5,191.167 84.5,193.833 84.5,196.5C 82.1667,196.5 79.8333,196.5 77.5,196.5C 77.5,199.167 77.5,201.833 77.5,204.5C 79.8333,204.5 82.1667,204.5 84.5,204.5C 85.4731,202.052 85.8064,199.385 85.5,196.5C 90.1667,196.5 94.8333,196.5 99.5,196.5C 99.5,193.833 99.5,191.167 99.5,188.5C 101.833,188.5 104.167,188.5 106.5,188.5C 108.833,188.5 111.167,188.5 113.5,188.5C 113.5,185.833 113.5,183.167 113.5,180.5 Z"/></g>
<g><path style="opacity:1" fill="#f7f4dd" d="M 142.5,180.5 C 144.833,180.5 147.167,180.5 149.5,180.5C 149.5,183.167 149.5,185.833 149.5,188.5C 151.833,188.5 154.167,188.5 156.5,188.5C 156.5,193.833 156.5,199.167 156.5,204.5C 158.833,204.5 161.167,204.5 163.5,204.5C 163.5,209.833 163.5,215.167 163.5,220.5C 161.167,220.5 158.833,220.5 156.5,220.5C 156.5,217.833 156.5,215.167 156.5,212.5C 154.167,212.5 151.833,212.5 149.5,212.5C 149.5,207.167 149.5,201.833 149.5,196.5C 147.167,196.5 144.833,196.5 142.5,196.5C 142.5,191.167 142.5,185.833 142.5,180.5 Z"/></g>
<g><path style="opacity:1" fill="#c8c7c1" d="M 149.5,180.5 C 151.833,180.5 154.167,180.5 156.5,180.5C 156.5,183.167 156.5,185.833 156.5,188.5C 154.167,188.5 151.833,188.5 149.5,188.5C 149.5,185.833 149.5,183.167 149.5,180.5 Z"/></g>
<g><path style="opacity:1" fill="#f8f5de" d="M 156.5,180.5 C 158.833,180.5 161.167,180.5 163.5,180.5C 163.5,183.167 163.5,185.833 163.5,188.5C 161.167,188.5 158.833,188.5 156.5,188.5C 156.5,185.833 156.5,183.167 156.5,180.5 Z"/></g>
<g><path style="opacity:1" fill="#f7f4dd" d="M 213.5,204.5 C 213.5,207.167 213.5,209.833 213.5,212.5C 215.833,212.5 218.167,212.5 220.5,212.5C 220.5,215.167 220.5,217.833 220.5,220.5C 222.833,220.5 225.167,220.5 227.5,220.5C 227.5,222.833 227.5,225.167 227.5,227.5C 222.833,227.5 218.167,227.5 213.5,227.5C 213.5,225.167 213.5,222.833 213.5,220.5C 211.167,220.5 208.833,220.5 206.5,220.5C 206.5,217.833 206.5,215.167 206.5,212.5C 204.167,212.5 201.833,212.5 199.5,212.5C 197.167,212.5 194.833,212.5 192.5,212.5C 192.5,209.833 192.5,207.167 192.5,204.5C 190.167,204.5 187.833,204.5 185.5,204.5C 185.167,204.5 184.833,204.5 184.5,204.5C 184.5,201.833 184.5,199.167 184.5,196.5C 182.167,196.5 179.833,196.5 177.5,196.5C 177.5,193.833 177.5,191.167 177.5,188.5C 175.167,188.5 172.833,188.5 170.5,188.5C 170.5,185.833 170.5,183.167 170.5,180.5C 175.5,180.5 180.5,180.5 185.5,180.5C 185.5,183.167 185.5,185.833 185.5,188.5C 187.833,188.5 190.167,188.5 192.5,188.5C 192.5,191.167 192.5,193.833 192.5,196.5C 194.833,196.5 197.167,196.5 199.5,196.5C 199.5,199.167 199.5,201.833 199.5,204.5C 201.833,204.5 204.167,204.5 206.5,204.5C 206.5,201.833 206.5,199.167 206.5,196.5C 208.833,196.5 211.167,196.5 213.5,196.5C 213.5,199.167 213.5,201.833 213.5,204.5 Z"/></g>
<g><path style="opacity:1" fill="#f7f5dd" d="M 213.5,180.5 C 215.833,180.5 218.167,180.5 220.5,180.5C 220.5,183.167 220.5,185.833 220.5,188.5C 218.167,188.5 215.833,188.5 213.5,188.5C 213.5,185.833 213.5,183.167 213.5,180.5 Z"/></g>
<g><path style="opacity:1" fill="#6b6d6a" d="M 220.5,180.5 C 223.167,180.5 225.833,180.5 228.5,180.5C 228.5,183.167 228.5,185.833 228.5,188.5C 228.5,191.167 228.5,193.833 228.5,196.5C 228.167,196.5 227.833,196.5 227.5,196.5C 227.5,193.833 227.5,191.167 227.5,188.5C 225.167,188.5 222.833,188.5 220.5,188.5C 220.5,185.833 220.5,183.167 220.5,180.5 Z"/></g>
<g><path style="opacity:1" fill="#90908a" d="M 84.5,180.5 C 84.8333,180.5 85.1667,180.5 85.5,180.5C 87.8333,180.5 90.1667,180.5 92.5,180.5C 92.8064,183.385 92.4731,186.052 91.5,188.5C 91.5,186.167 91.5,183.833 91.5,181.5C 89.5,181.5 87.5,181.5 85.5,181.5C 85.5,183.833 85.5,186.167 85.5,188.5C 85.5,191.167 85.5,193.833 85.5,196.5C 85.8064,199.385 85.4731,202.052 84.5,204.5C 84.5,201.833 84.5,199.167 84.5,196.5C 84.5,193.833 84.5,191.167 84.5,188.5C 84.5,185.833 84.5,183.167 84.5,180.5 Z"/></g>
<g><path style="opacity:1" fill="#555756" d="M 91.5,188.5 C 89.5,188.5 87.5,188.5 85.5,188.5C 85.5,186.167 85.5,183.833 85.5,181.5C 87.5,181.5 89.5,181.5 91.5,181.5C 91.5,183.833 91.5,186.167 91.5,188.5 Z"/></g>
<g><path style="opacity:1" fill="#f4f1da" d="M 63.5,188.5 C 65.8333,188.5 68.1667,188.5 70.5,188.5C 70.5,191.167 70.5,193.833 70.5,196.5C 68.1667,196.5 65.8333,196.5 63.5,196.5C 63.5,193.833 63.5,191.167 63.5,188.5 Z"/></g>
<g><path style="opacity:1" fill="#c4c3be" d="M 128.5,188.5 C 130.833,188.5 133.167,188.5 135.5,188.5C 135.5,191.167 135.5,193.833 135.5,196.5C 137.5,196.5 139.5,196.5 141.5,196.5C 141.5,201.5 141.5,206.5 141.5,211.5C 139.5,211.5 137.5,211.5 135.5,211.5C 135.802,208.941 135.468,206.607 134.5,204.5C 132.5,204.5 130.5,204.5 128.5,204.5C 128.5,199.167 128.5,193.833 128.5,188.5 Z"/></g>
<g><path style="opacity:1" fill="#f7f4dd" d="M 220.5,188.5 C 222.833,188.5 225.167,188.5 227.5,188.5C 227.5,191.167 227.5,193.833 227.5,196.5C 225.167,196.5 222.833,196.5 220.5,196.5C 220.5,193.833 220.5,191.167 220.5,188.5 Z"/></g>
<g><path style="opacity:1" fill="#61615f" d="M 228.5,188.5 C 230.5,188.5 232.5,188.5 234.5,188.5C 234.5,191.167 234.5,193.833 234.5,196.5C 232.5,196.5 230.5,196.5 228.5,196.5C 228.5,193.833 228.5,191.167 228.5,188.5 Z"/></g>
<g><path style="opacity:1" fill="#f2f2db" d="M 235.5,188.5 C 237.833,188.5 240.167,188.5 242.5,188.5C 242.5,191.167 242.5,193.833 242.5,196.5C 240.167,196.5 237.833,196.5 235.5,196.5C 235.5,193.833 235.5,191.167 235.5,188.5 Z"/></g>
<g><path style="opacity:1" fill="#d1d4d3" d="M 306.5,188.5 C 308.833,188.5 311.167,188.5 313.5,188.5C 313.5,191.167 313.5,193.833 313.5,196.5C 313.5,199.167 313.5,201.833 313.5,204.5C 306.5,206.167 303.833,203.5 305.5,196.5C 303.167,196.5 300.833,196.5 298.5,196.5C 298.5,193.833 298.5,191.167 298.5,188.5C 296.167,188.5 293.833,188.5 291.5,188.5C 291.5,185.833 291.5,183.167 291.5,180.5C 294.167,180.5 296.833,180.5 299.5,180.5C 299.5,183.167 299.5,185.833 299.5,188.5C 301.833,188.5 304.167,188.5 306.5,188.5 Z"/></g>
<g><path style="opacity:1" fill="#85a6ac" d="M 320.5,180.5 C 322.833,180.5 325.167,180.5 327.5,180.5C 327.5,183.167 327.5,185.833 327.5,188.5C 327.842,189.338 328.508,189.672 329.5,189.5C 329.5,191.833 329.5,194.167 329.5,196.5C 324.167,196.5 318.833,196.5 313.5,196.5C 313.5,193.833 313.5,191.167 313.5,188.5C 311.167,188.5 308.833,188.5 306.5,188.5C 306.5,185.833 306.5,183.167 306.5,180.5C 311.335,181.375 316.002,181.375 320.5,180.5 Z"/></g>
<g><path style="opacity:1" fill="#bebdb8" d="M 84.5,196.5 C 84.5,199.167 84.5,201.833 84.5,204.5C 82.1667,204.5 79.8333,204.5 77.5,204.5C 77.5,201.833 77.5,199.167 77.5,196.5C 79.8333,196.5 82.1667,196.5 84.5,196.5 Z"/></g>
<g><path style="opacity:1" fill="#c5c4bf" d="M 99.5,196.5 C 101.833,196.5 104.167,196.5 106.5,196.5C 106.5,199.167 106.5,201.833 106.5,204.5C 104.167,204.5 101.833,204.5 99.5,204.5C 99.5,201.833 99.5,199.167 99.5,196.5 Z"/></g>
<g><path style="opacity:1" fill="#f8f5dd" d="M 106.5,196.5 C 108.833,196.5 111.167,196.5 113.5,196.5C 113.5,199.167 113.5,201.833 113.5,204.5C 115.833,204.5 118.167,204.5 120.5,204.5C 120.5,207.167 120.5,209.833 120.5,212.5C 118.5,212.5 116.5,212.5 114.5,212.5C 113.532,214.607 113.198,216.941 113.5,219.5C 111.167,219.5 108.833,219.5 106.5,219.5C 106.5,217.167 106.5,214.833 106.5,212.5C 106.5,209.833 106.5,207.167 106.5,204.5C 106.5,201.833 106.5,199.167 106.5,196.5 Z"/></g>
<g><path style="opacity:1" fill="#969691" d="M 135.5,180.5 C 137.833,180.5 140.167,180.5 142.5,180.5C 142.5,185.833 142.5,191.167 142.5,196.5C 142.5,201.833 142.5,207.167 142.5,212.5C 139.833,212.5 137.167,212.5 134.5,212.5C 134.5,209.833 134.5,207.167 134.5,204.5C 135.468,206.607 135.802,208.941 135.5,211.5C 137.5,211.5 139.5,211.5 141.5,211.5C 141.5,206.5 141.5,201.5 141.5,196.5C 141.5,191.5 141.5,186.5 141.5,181.5C 139.265,181.795 137.265,181.461 135.5,180.5 Z"/></g>
<g><path style="opacity:1" fill="#c0bfba" d="M 177.5,196.5 C 179.833,196.5 182.167,196.5 184.5,196.5C 184.5,199.167 184.5,201.833 184.5,204.5C 182.167,204.5 179.833,204.5 177.5,204.5C 177.5,201.833 177.5,199.167 177.5,196.5 Z"/></g>
<g><path style="opacity:1" fill="#f7f4dd" d="M 227.5,196.5 C 227.833,196.5 228.167,196.5 228.5,196.5C 230.5,196.5 232.5,196.5 234.5,196.5C 234.5,199.167 234.5,201.833 234.5,204.5C 232.167,204.5 229.833,204.5 227.5,204.5C 227.5,201.833 227.5,199.167 227.5,196.5 Z"/></g>
<g><path style="opacity:1" fill="#73736e" d="M 234.5,188.5 C 234.833,188.5 235.167,188.5 235.5,188.5C 235.5,191.167 235.5,193.833 235.5,196.5C 237.833,196.5 240.167,196.5 242.5,196.5C 242.5,199.167 242.5,201.833 242.5,204.5C 239.833,204.5 237.167,204.5 234.5,204.5C 234.5,201.833 234.5,199.167 234.5,196.5C 234.5,193.833 234.5,191.167 234.5,188.5 Z"/></g>
<g><path style="opacity:1" fill="#c7c6c0" d="M 242.5,196.5 C 244.833,196.5 247.167,196.5 249.5,196.5C 249.5,199.167 249.5,201.833 249.5,204.5C 247.167,204.5 244.833,204.5 242.5,204.5C 242.5,201.833 242.5,199.167 242.5,196.5 Z"/></g>
<g><path style="opacity:1" fill="#f6f3dc" d="M 249.5,196.5 C 251.833,196.5 254.167,196.5 256.5,196.5C 256.5,199.167 256.5,201.833 256.5,204.5C 254.167,204.5 251.833,204.5 249.5,204.5C 249.5,201.833 249.5,199.167 249.5,196.5 Z"/></g>
<g><path style="opacity:1" fill="#efebe1" d="M 313.5,196.5 C 318.833,196.5 324.167,196.5 329.5,196.5C 329.5,199.167 329.5,201.833 329.5,204.5C 326.5,204.5 323.5,204.5 320.5,204.5C 318.167,204.5 315.833,204.5 313.5,204.5C 313.5,201.833 313.5,199.167 313.5,196.5 Z"/></g>
<g><path style="opacity:1" fill="#9cbdc2" d="M -0.5,204.5 C 1.83333,204.5 4.16667,204.5 6.5,204.5C 6.5,209.833 6.5,215.167 6.5,220.5C 5.65859,222.379 5.32526,224.379 5.5,226.5C 3.5,226.5 1.5,226.5 -0.5,226.5C -0.5,219.167 -0.5,211.833 -0.5,204.5 Z"/></g>
<g><path style="opacity:1" fill="#61615e" d="M 156.5,188.5 C 158.833,188.5 161.167,188.5 163.5,188.5C 163.5,191.167 163.5,193.833 163.5,196.5C 168.167,196.5 172.833,196.5 177.5,196.5C 177.5,199.167 177.5,201.833 177.5,204.5C 179.833,204.5 182.167,204.5 184.5,204.5C 184.833,204.5 185.167,204.5 185.5,204.5C 185.5,207.167 185.5,209.833 185.5,212.5C 187.5,212.5 189.5,212.5 191.5,212.5C 191.5,215.167 191.5,217.833 191.5,220.5C 189.5,220.5 187.5,220.5 185.5,220.5C 185.768,223.119 185.435,225.619 184.5,228C 186.81,228.497 189.143,228.663 191.5,228.5C 189.833,235.5 192.5,238.167 199.5,236.5C 199.5,238.833 199.5,241.167 199.5,243.5C 205.905,242.406 208.238,245.073 206.5,251.5C 208.833,251.5 211.167,251.5 213.5,251.5C 213.5,248.833 213.5,246.167 213.5,243.5C 211.167,243.5 208.833,243.5 206.5,243.5C 206.5,240.833 206.5,238.167 206.5,235.5C 204.167,235.5 201.833,235.5 199.5,235.5C 199.5,232.833 199.5,230.167 199.5,227.5C 197.167,227.5 194.833,227.5 192.5,227.5C 192.5,225.167 192.5,222.833 192.5,220.5C 194.833,220.5 197.167,220.5 199.5,220.5C 199.5,217.833 199.5,215.167 199.5,212.5C 201.833,212.5 204.167,212.5 206.5,212.5C 206.5,215.167 206.5,217.833 206.5,220.5C 208.833,220.5 211.167,220.5 213.5,220.5C 213.5,222.833 213.5,225.167 213.5,227.5C 217.97,228.486 222.637,228.819 227.5,228.5C 227.5,231.167 227.5,233.833 227.5,236.5C 230.059,236.802 232.393,236.468 234.5,235.5C 234.5,233.167 234.5,230.833 234.5,228.5C 232.735,227.539 230.735,227.205 228.5,227.5C 228.802,224.941 228.468,222.607 227.5,220.5C 225.167,220.5 222.833,220.5 220.5,220.5C 220.5,217.833 220.5,215.167 220.5,212.5C 225.167,212.5 229.833,212.5 234.5,212.5C 234.5,215.167 234.5,217.833 234.5,220.5C 239.5,220.5 244.5,220.5 249.5,220.5C 249.806,217.615 249.473,214.948 248.5,212.5C 246.5,212.5 244.5,212.5 242.5,212.5C 242.5,209.833 242.5,207.167 242.5,204.5C 244.833,204.5 247.167,204.5 249.5,204.5C 251.833,204.5 254.167,204.5 256.5,204.5C 256.5,207.167 256.5,209.833 256.5,212.5C 261.363,212.819 266.03,212.486 270.5,211.5C 273.059,211.198 275.393,211.532 277.5,212.5C 277.5,215.167 277.5,217.833 277.5,220.5C 279.833,220.5 282.167,220.5 284.5,220.5C 286.833,220.5 289.167,220.5 291.5,220.5C 291.5,223.167 291.5,225.833 291.5,228.5C 294.167,228.5 296.833,228.5 299.5,228.5C 299.5,230.833 299.5,233.167 299.5,235.5C 299.5,238.167 299.5,240.833 299.5,243.5C 301.833,243.5 304.167,243.5 306.5,243.5C 306.5,246.167 306.5,248.833 306.5,251.5C 308.833,251.5 311.167,251.5 313.5,251.5C 313.5,254.167 313.5,256.833 313.5,259.5C 315.833,259.5 318.167,259.5 320.5,259.5C 320.5,262.167 320.5,264.833 320.5,267.5C 323.388,266.99 325.721,267.656 327.5,269.5C 325.192,273.795 322.526,277.795 319.5,281.5C 317.621,282.341 315.621,282.675 313.5,282.5C 313.5,280.167 313.5,277.833 313.5,275.5C 311.167,275.5 308.833,275.5 306.5,275.5C 304.393,274.532 302.059,274.198 299.5,274.5C 299.5,272.167 299.5,269.833 299.5,267.5C 297.167,267.5 294.833,267.5 292.5,267.5C 292.5,270.167 292.5,272.833 292.5,275.5C 294.5,275.5 296.5,275.5 298.5,275.5C 298.5,278.167 298.5,280.833 298.5,283.5C 296.5,283.5 294.5,283.5 292.5,283.5C 290.052,282.527 287.385,282.194 284.5,282.5C 284.5,280.167 284.5,277.833 284.5,275.5C 282.167,275.5 279.833,275.5 277.5,275.5C 272.833,275.5 268.167,275.5 263.5,275.5C 263.5,272.833 263.5,270.167 263.5,267.5C 261.167,267.5 258.833,267.5 256.5,267.5C 256.5,264.833 256.5,262.167 256.5,259.5C 254.167,259.5 251.833,259.5 249.5,259.5C 249.5,264.833 249.5,270.167 249.5,275.5C 251.833,275.5 254.167,275.5 256.5,275.5C 256.5,278.167 256.5,280.833 256.5,283.5C 258.833,283.5 261.167,283.5 263.5,283.5C 263.5,285.833 263.5,288.167 263.5,290.5C 265.833,290.5 268.167,290.5 270.5,290.5C 272.607,291.468 274.941,291.802 277.5,291.5C 277.5,293.833 277.5,296.167 277.5,298.5C 265.5,298.5 253.5,298.5 241.5,298.5C 241.5,296.167 241.5,293.833 241.5,291.5C 237.154,291.666 232.821,291.499 228.5,291C 227.565,288.619 227.232,286.119 227.5,283.5C 225.167,283.5 222.833,283.5 220.5,283.5C 218.167,283.5 215.833,283.5 213.5,283.5C 213.5,280.833 213.5,278.167 213.5,275.5C 211.167,275.5 208.833,275.5 206.5,275.5C 206.5,280.5 206.5,285.5 206.5,290.5C 201.833,290.833 197.167,291.167 192.5,291.5C 190.167,291.5 187.833,291.5 185.5,291.5C 185.5,293.833 185.5,296.167 185.5,298.5C 178.167,298.5 170.833,298.5 163.5,298.5C 163.5,296.167 163.5,293.833 163.5,291.5C 163.5,288.833 163.5,286.167 163.5,283.5C 165.833,283.5 168.167,283.5 170.5,283.5C 170.5,280.833 170.5,278.167 170.5,275.5C 170.5,272.833 170.5,270.167 170.5,267.5C 170.5,262.167 170.5,256.833 170.5,251.5C 173.167,251.5 175.833,251.5 178.5,251.5C 178.5,254.167 178.5,256.833 178.5,259.5C 180.5,259.5 182.5,259.5 184.5,259.5C 184.5,262.167 184.5,264.833 184.5,267.5C 186.833,267.5 189.167,267.5 191.5,267.5C 191.5,272.833 191.5,278.167 191.5,283.5C 194.167,283.5 196.833,283.5 199.5,283.5C 199.5,275.5 199.5,267.5 199.5,259.5C 197.167,259.5 194.833,259.5 192.5,259.5C 192.5,256.833 192.5,254.167 192.5,251.5C 190.167,251.5 187.833,251.5 185.5,251.5C 185.5,246.167 185.5,240.833 185.5,235.5C 183.167,235.5 180.833,235.5 178.5,235.5C 178.5,233.167 178.5,230.833 178.5,228.5C 175.833,228.5 173.167,228.5 170.5,228.5C 170.5,223.167 170.5,217.833 170.5,212.5C 168.5,212.5 166.5,212.5 164.5,212.5C 164.806,215.385 164.473,218.052 163.5,220.5C 163.5,215.167 163.5,209.833 163.5,204.5C 161.167,204.5 158.833,204.5 156.5,204.5C 156.5,199.167 156.5,193.833 156.5,188.5 Z"/></g>
<g><path style="opacity:1" fill="#f6f3db" d="M 234.5,204.5 C 237.167,204.5 239.833,204.5 242.5,204.5C 242.5,207.167 242.5,209.833 242.5,212.5C 244.5,212.5 246.5,212.5 248.5,212.5C 248.5,214.833 248.5,217.167 248.5,219.5C 244.167,219.5 239.833,219.5 235.5,219.5C 235.802,216.941 235.468,214.607 234.5,212.5C 234.5,209.833 234.5,207.167 234.5,204.5 Z"/></g>
<g><path style="opacity:1" fill="#f9f7de" d="M 227.5,204.5 C 227.5,206.833 227.5,209.167 227.5,211.5C 225.5,211.5 223.5,211.5 221.5,211.5C 221.5,209.167 221.5,206.833 221.5,204.5C 223.5,204.5 225.5,204.5 227.5,204.5 Z"/></g>
<g><path style="opacity:1" fill="#666663" d="M 213.5,204.5 C 215.833,204.5 218.167,204.5 220.5,204.5C 220.5,207.167 220.5,209.833 220.5,212.5C 218.167,212.5 215.833,212.5 213.5,212.5C 213.5,209.833 213.5,207.167 213.5,204.5 Z"/></g>
<g><path style="opacity:1" fill="#c0bfba" d="M 185.5,204.5 C 187.833,204.5 190.167,204.5 192.5,204.5C 192.5,207.167 192.5,209.833 192.5,212.5C 194.833,212.5 197.167,212.5 199.5,212.5C 199.5,215.167 199.5,217.833 199.5,220.5C 197.167,220.5 194.833,220.5 192.5,220.5C 192.167,220.5 191.833,220.5 191.5,220.5C 191.5,217.833 191.5,215.167 191.5,212.5C 189.5,212.5 187.5,212.5 185.5,212.5C 185.5,209.833 185.5,207.167 185.5,204.5 Z"/></g>
<g><path style="opacity:1" fill="#f5f2db" d="M 256.5,204.5 C 261.167,204.5 265.833,204.5 270.5,204.5C 270.5,206.833 270.5,209.167 270.5,211.5C 266.03,212.486 261.363,212.819 256.5,212.5C 256.5,209.833 256.5,207.167 256.5,204.5 Z"/></g>
<g><path style="opacity:1" fill="#d3d4d4" d="M 320.5,204.5 C 323.5,204.5 326.5,204.5 329.5,204.5C 329.5,207.167 329.5,209.833 329.5,212.5C 326.5,212.5 323.5,212.5 320.5,212.5C 320.5,209.833 320.5,207.167 320.5,204.5 Z"/></g>
<g><path style="opacity:1" fill="#c8c7c0" d="M 106.5,212.5 C 106.5,214.833 106.5,217.167 106.5,219.5C 108.833,219.5 111.167,219.5 113.5,219.5C 113.5,219.833 113.5,220.167 113.5,220.5C 111.167,220.5 108.833,220.5 106.5,220.5C 104.167,220.5 101.833,220.5 99.5,220.5C 99.5,217.833 99.5,215.167 99.5,212.5C 101.833,212.5 104.167,212.5 106.5,212.5 Z"/></g>
<g><path style="opacity:1" fill="#f0edd7" d="M 277.5,212.5 C 279.833,212.5 282.167,212.5 284.5,212.5C 284.5,215.167 284.5,217.833 284.5,220.5C 282.167,220.5 279.833,220.5 277.5,220.5C 277.5,217.833 277.5,215.167 277.5,212.5 Z"/></g>
<g><path style="opacity:1" fill="#9c9b98" d="M 64.5,212.5 C 64.5,214.833 64.5,217.167 64.5,219.5C 66.5,219.5 68.5,219.5 70.5,219.5C 70.5,217.167 70.5,214.833 70.5,212.5C 71.4731,214.948 71.8064,217.615 71.5,220.5C 68.8333,220.5 66.1667,220.5 63.5,220.5C 63.1936,217.615 63.5269,214.948 64.5,212.5 Z"/></g>
<g><path style="opacity:1" fill="#c6c6c0" d="M 64.5,212.5 C 66.5,212.5 68.5,212.5 70.5,212.5C 70.5,214.833 70.5,217.167 70.5,219.5C 68.5,219.5 66.5,219.5 64.5,219.5C 64.5,217.167 64.5,214.833 64.5,212.5 Z"/></g>
<g><path style="opacity:1" fill="#7c7d78" d="M 114.5,212.5 C 114.5,214.833 114.5,217.167 114.5,219.5C 119.032,219.182 123.366,219.515 127.5,220.5C 125.167,220.5 122.833,220.5 120.5,220.5C 118.167,220.5 115.833,220.5 113.5,220.5C 113.5,220.167 113.5,219.833 113.5,219.5C 113.198,216.941 113.532,214.607 114.5,212.5 Z"/></g>
<g><path style="opacity:1" fill="#c6c3b3" d="M 234.5,212.5 C 235.468,214.607 235.802,216.941 235.5,219.5C 239.833,219.5 244.167,219.5 248.5,219.5C 248.5,217.167 248.5,214.833 248.5,212.5C 249.473,214.948 249.806,217.615 249.5,220.5C 244.5,220.5 239.5,220.5 234.5,220.5C 234.5,217.833 234.5,215.167 234.5,212.5 Z"/></g>
<g><path style="opacity:1" fill="#c7c6c1" d="M 92.5,220.5 C 94.8333,220.5 97.1667,220.5 99.5,220.5C 99.5,222.833 99.5,225.167 99.5,227.5C 97.1667,227.5 94.8333,227.5 92.5,227.5C 92.5,225.167 92.5,222.833 92.5,220.5 Z"/></g>
<g><path style="opacity:1" fill="#f9f7de" d="M 99.5,220.5 C 101.833,220.5 104.167,220.5 106.5,220.5C 106.5,222.833 106.5,225.167 106.5,227.5C 104.167,227.5 101.833,227.5 99.5,227.5C 99.5,225.167 99.5,222.833 99.5,220.5 Z"/></g>
<g><path style="opacity:1" fill="#555756" d="M 106.5,220.5 C 108.833,220.5 111.167,220.5 113.5,220.5C 113.5,222.833 113.5,225.167 113.5,227.5C 111.167,227.5 108.833,227.5 106.5,227.5C 106.5,225.167 106.5,222.833 106.5,220.5 Z"/></g>
<g><path style="opacity:1" fill="#c4c3be" d="M 113.5,220.5 C 115.833,220.5 118.167,220.5 120.5,220.5C 120.5,222.833 120.5,225.167 120.5,227.5C 118.167,227.5 115.833,227.5 113.5,227.5C 113.5,225.167 113.5,222.833 113.5,220.5 Z"/></g>
<g><path style="opacity:1" fill="#f7f5dd" d="M 120.5,220.5 C 122.833,220.5 125.167,220.5 127.5,220.5C 127.5,222.833 127.5,225.167 127.5,227.5C 125.167,227.5 122.833,227.5 120.5,227.5C 120.5,225.167 120.5,222.833 120.5,220.5 Z"/></g>
<g><path style="opacity:1" fill="#9c9b90" d="M 127.5,220.5 C 128.473,222.948 128.806,225.615 128.5,228.5C 126.167,228.5 123.833,228.5 121.5,228.5C 121.802,231.059 121.468,233.393 120.5,235.5C 120.5,232.833 120.5,230.167 120.5,227.5C 122.833,227.5 125.167,227.5 127.5,227.5C 127.5,225.167 127.5,222.833 127.5,220.5 Z"/></g>
<g><path style="opacity:1" fill="#80807e" d="M 142.5,220.5 C 142.5,222.833 142.5,225.167 142.5,227.5C 144.833,227.5 147.167,227.5 149.5,227.5C 147.052,228.473 144.385,228.806 141.5,228.5C 141.194,225.615 141.527,222.948 142.5,220.5 Z"/></g>
<g><path style="opacity:1" fill="#c4c3be" d="M 142.5,220.5 C 144.833,220.5 147.167,220.5 149.5,220.5C 149.5,222.833 149.5,225.167 149.5,227.5C 149.5,225.167 149.5,222.833 149.5,220.5C 147.167,220.5 144.833,220.5 142.5,220.5 Z"/></g>
<g><path style="opacity:1" fill="#575858" d="M 191.5,220.5 C 191.833,220.5 192.167,220.5 192.5,220.5C 192.5,222.833 192.5,225.167 192.5,227.5C 194.833,227.5 197.167,227.5 199.5,227.5C 199.5,230.167 199.5,232.833 199.5,235.5C 201.833,235.5 204.167,235.5 206.5,235.5C 206.5,238.167 206.5,240.833 206.5,243.5C 208.833,243.5 211.167,243.5 213.5,243.5C 213.5,246.167 213.5,248.833 213.5,251.5C 211.167,251.5 208.833,251.5 206.5,251.5C 208.238,245.073 205.905,242.406 199.5,243.5C 199.5,241.167 199.5,238.833 199.5,236.5C 192.5,238.167 189.833,235.5 191.5,228.5C 189.143,228.663 186.81,228.497 184.5,228C 185.435,225.619 185.768,223.119 185.5,220.5C 187.5,220.5 189.5,220.5 191.5,220.5 Z"/></g>
<g><path style="opacity:1" fill="#f9f7de" d="M 270.5,227.5 C 265.833,227.5 261.167,227.5 256.5,227.5C 256.5,225.167 256.5,222.833 256.5,220.5C 261.167,220.5 265.833,220.5 270.5,220.5C 270.5,222.833 270.5,225.167 270.5,227.5 Z"/></g>
<g><path style="opacity:1" fill="#a2ada5" d="M 284.5,212.5 C 285.468,214.607 285.802,216.941 285.5,219.5C 290.032,219.182 294.366,219.515 298.5,220.5C 296.5,220.5 294.5,220.5 292.5,220.5C 292.5,222.833 292.5,225.167 292.5,227.5C 294.833,227.5 297.167,227.5 299.5,227.5C 302.059,227.198 304.393,227.532 306.5,228.5C 306.167,228.5 305.833,228.5 305.5,228.5C 303.5,228.5 301.5,228.5 299.5,228.5C 296.833,228.5 294.167,228.5 291.5,228.5C 291.5,225.833 291.5,223.167 291.5,220.5C 289.167,220.5 286.833,220.5 284.5,220.5C 284.5,217.833 284.5,215.167 284.5,212.5 Z"/></g>
<g><path style="opacity:1" fill="#f5f3dc" d="M 298.5,220.5 C 299.468,222.607 299.802,224.941 299.5,227.5C 297.167,227.5 294.833,227.5 292.5,227.5C 292.5,225.167 292.5,222.833 292.5,220.5C 294.5,220.5 296.5,220.5 298.5,220.5 Z"/></g>
<g><path style="opacity:1" fill="#8a8a86" d="M 92.5,220.5 C 92.5,222.833 92.5,225.167 92.5,227.5C 94.8333,227.5 97.1667,227.5 99.5,227.5C 101.833,227.5 104.167,227.5 106.5,227.5C 108.833,227.5 111.167,227.5 113.5,227.5C 113.5,227.833 113.5,228.167 113.5,228.5C 111.167,228.5 108.833,228.5 106.5,228.5C 101.833,228.5 97.1667,228.5 92.5,228.5C 90.1667,228.5 87.8333,228.5 85.5,228.5C 87.2646,227.539 89.2646,227.205 91.5,227.5C 91.1984,224.941 91.5318,222.607 92.5,220.5 Z"/></g>
<g><path style="opacity:1" fill="#a8a69a" d="M 227.5,220.5 C 228.468,222.607 228.802,224.941 228.5,227.5C 230.735,227.205 232.735,227.539 234.5,228.5C 232.5,228.5 230.5,228.5 228.5,228.5C 228.5,230.833 228.5,233.167 228.5,235.5C 230.5,235.5 232.5,235.5 234.5,235.5C 232.393,236.468 230.059,236.802 227.5,236.5C 227.5,233.833 227.5,231.167 227.5,228.5C 222.637,228.819 217.97,228.486 213.5,227.5C 218.167,227.5 222.833,227.5 227.5,227.5C 227.5,225.167 227.5,222.833 227.5,220.5 Z"/></g>
<g><path style="opacity:1" fill="#c3c2bd" d="M 85.5,228.5 C 87.8333,228.5 90.1667,228.5 92.5,228.5C 92.5,230.833 92.5,233.167 92.5,235.5C 90.1667,235.5 87.8333,235.5 85.5,235.5C 85.5,233.167 85.5,230.833 85.5,228.5 Z"/></g>
<g><path style="opacity:1" fill="#bdbdb7" d="M 106.5,228.5 C 108.833,228.5 111.167,228.5 113.5,228.5C 113.5,230.833 113.5,233.167 113.5,235.5C 115.833,235.5 118.167,235.5 120.5,235.5C 116.03,236.486 111.363,236.819 106.5,236.5C 106.5,233.833 106.5,231.167 106.5,228.5 Z"/></g>
<g><path style="opacity:1" fill="#f6f3dc" d="M 113.5,227.5 C 115.833,227.5 118.167,227.5 120.5,227.5C 120.5,230.167 120.5,232.833 120.5,235.5C 118.167,235.5 115.833,235.5 113.5,235.5C 113.5,233.167 113.5,230.833 113.5,228.5C 113.5,228.167 113.5,227.833 113.5,227.5 Z"/></g>
<g><path style="opacity:1" fill="#c6c6c0" d="M 156.5,228.5 C 158.833,228.5 161.167,228.5 163.5,228.5C 163.5,230.833 163.5,233.167 163.5,235.5C 161.167,235.5 158.833,235.5 156.5,235.5C 156.5,233.167 156.5,230.833 156.5,228.5 Z"/></g>
<g><path style="opacity:1" fill="#f9f7de" d="M 234.5,228.5 C 234.5,230.833 234.5,233.167 234.5,235.5C 232.5,235.5 230.5,235.5 228.5,235.5C 228.5,233.167 228.5,230.833 228.5,228.5C 230.5,228.5 232.5,228.5 234.5,228.5 Z"/></g>
<g><path style="opacity:1" fill="#f9f7de" d="M 242.5,228.5 C 244.5,228.5 246.5,228.5 248.5,228.5C 248.5,230.833 248.5,233.167 248.5,235.5C 246.5,235.5 244.5,235.5 242.5,235.5C 242.5,233.167 242.5,230.833 242.5,228.5 Z"/></g>
<g><path style="opacity:1" fill="#bab8a9" d="M 242.5,228.5 C 244.607,227.532 246.941,227.198 249.5,227.5C 249.5,230.5 249.5,233.5 249.5,236.5C 246.941,236.802 244.607,236.468 242.5,235.5C 244.5,235.5 246.5,235.5 248.5,235.5C 248.5,233.167 248.5,230.833 248.5,228.5C 246.5,228.5 244.5,228.5 242.5,228.5 Z"/></g>
<g><path style="opacity:1" fill="#c7c6bf" d="M 256.5,227.5 C 261.167,227.5 265.833,227.5 270.5,227.5C 273.059,227.198 275.393,227.532 277.5,228.5C 275.167,228.5 272.833,228.5 270.5,228.5C 270.5,230.833 270.5,233.167 270.5,235.5C 268.167,235.5 265.833,235.5 263.5,235.5C 263.5,233.167 263.5,230.833 263.5,228.5C 260.941,228.802 258.607,228.468 256.5,227.5 Z"/></g>
<g><path style="opacity:1" fill="#f9f6de" d="M 277.5,228.5 C 277.5,230.833 277.5,233.167 277.5,235.5C 275.167,235.5 272.833,235.5 270.5,235.5C 270.5,233.167 270.5,230.833 270.5,228.5C 272.833,228.5 275.167,228.5 277.5,228.5 Z"/></g>
<g><path style="opacity:1" fill="#f9f7de" d="M 299.5,228.5 C 301.5,228.5 303.5,228.5 305.5,228.5C 305.5,230.833 305.5,233.167 305.5,235.5C 303.5,235.5 301.5,235.5 299.5,235.5C 299.5,233.167 299.5,230.833 299.5,228.5 Z"/></g>
<g><path style="opacity:1" fill="#8b8b89" d="M 85.5,228.5 C 85.5,230.833 85.5,233.167 85.5,235.5C 87.8333,235.5 90.1667,235.5 92.5,235.5C 90.3926,236.468 88.0593,236.802 85.5,236.5C 85.5,239.167 85.5,241.833 85.5,244.5C 82.9407,244.802 80.6074,244.468 78.5,243.5C 77.5269,241.052 77.1936,238.385 77.5,235.5C 79.8333,235.5 82.1667,235.5 84.5,235.5C 84.1984,232.941 84.5318,230.607 85.5,228.5 Z"/></g>
<g><path style="opacity:1" fill="#abaa9d" d="M 263.5,235.5 C 265.833,235.5 268.167,235.5 270.5,235.5C 272.833,235.5 275.167,235.5 277.5,235.5C 282.5,235.5 287.5,235.5 292.5,235.5C 292.5,238.5 292.5,241.5 292.5,244.5C 287.5,244.5 282.5,244.5 277.5,244.5C 277.5,241.833 277.5,239.167 277.5,236.5C 272.637,236.819 267.97,236.486 263.5,235.5 Z"/></g>
<g><path style="opacity:1" fill="#c6c6c0" d="M 78.5,243.5 C 78.5,241.167 78.5,238.833 78.5,236.5C 80.5,236.5 82.5,236.5 84.5,236.5C 84.5,238.833 84.5,241.167 84.5,243.5C 82.5,243.5 80.5,243.5 78.5,243.5 Z"/></g>
<g><path style="opacity:1" fill="#f9f7de" d="M 278.5,236.5 C 282.833,236.5 287.167,236.5 291.5,236.5C 291.5,238.833 291.5,241.167 291.5,243.5C 287.167,243.5 282.833,243.5 278.5,243.5C 278.5,241.167 278.5,238.833 278.5,236.5 Z"/></g>
<g><path style="opacity:1" fill="#cbcbc4" d="M 305.5,228.5 C 305.833,228.5 306.167,228.5 306.5,228.5C 306.5,230.833 306.5,233.167 306.5,235.5C 309.059,235.198 311.393,235.532 313.5,236.5C 311.167,236.5 308.833,236.5 306.5,236.5C 306.5,238.833 306.5,241.167 306.5,243.5C 304.167,243.5 301.833,243.5 299.5,243.5C 299.5,240.833 299.5,238.167 299.5,235.5C 301.5,235.5 303.5,235.5 305.5,235.5C 305.5,233.167 305.5,230.833 305.5,228.5 Z"/></g>
<g><path style="opacity:1" fill="#f8f6de" d="M 313.5,236.5 C 313.5,238.833 313.5,241.167 313.5,243.5C 311.167,243.5 308.833,243.5 306.5,243.5C 306.5,241.167 306.5,238.833 306.5,236.5C 308.833,236.5 311.167,236.5 313.5,236.5 Z"/></g>
<g><path style="opacity:1" fill="#c2c1bc" d="M 92.5,243.5 C 94.8333,243.5 97.1667,243.5 99.5,243.5C 99.5,246.167 99.5,248.833 99.5,251.5C 97.1667,251.5 94.8333,251.5 92.5,251.5C 92.5,248.833 92.5,246.167 92.5,243.5 Z"/></g>
<g><path style="opacity:1" fill="#f4f1da" d="M 263.5,243.5 C 265.833,243.5 268.167,243.5 270.5,243.5C 270.5,246.167 270.5,248.833 270.5,251.5C 268.167,251.5 265.833,251.5 263.5,251.5C 263.5,248.833 263.5,246.167 263.5,243.5 Z"/></g>
<g><path style="opacity:1" fill="#c9c8c2" d="M 306.5,243.5 C 308.833,243.5 311.167,243.5 313.5,243.5C 316.059,243.198 318.393,243.532 320.5,244.5C 318.167,244.5 315.833,244.5 313.5,244.5C 313.5,246.833 313.5,249.167 313.5,251.5C 311.167,251.5 308.833,251.5 306.5,251.5C 306.5,248.833 306.5,246.167 306.5,243.5 Z"/></g>
<g><path style="opacity:1" fill="#f9f7de" d="M 320.5,244.5 C 320.5,246.833 320.5,249.167 320.5,251.5C 318.167,251.5 315.833,251.5 313.5,251.5C 313.5,249.167 313.5,246.833 313.5,244.5C 315.833,244.5 318.167,244.5 320.5,244.5 Z"/></g>
<g><path style="opacity:1" fill="#60605e" d="M 42.5,298.5 C 37.8333,298.5 33.1667,298.5 28.5,298.5C 28.5,296.167 28.5,293.833 28.5,291.5C 30.8333,291.5 33.1667,291.5 35.5,291.5C 35.5,286.167 35.5,280.833 35.5,275.5C 37.8333,275.5 40.1667,275.5 42.5,275.5C 42.5,270.167 42.5,264.833 42.5,259.5C 44.8333,259.5 47.1667,259.5 49.5,259.5C 49.5,256.833 49.5,254.167 49.5,251.5C 51.8333,251.5 54.1667,251.5 56.5,251.5C 56.5,256.833 56.5,262.167 56.5,267.5C 54.1667,267.5 51.8333,267.5 49.5,267.5C 49.5,275.5 49.5,283.5 49.5,291.5C 47.1667,291.5 44.8333,291.5 42.5,291.5C 42.5,293.833 42.5,296.167 42.5,298.5 Z"/></g>
<g><path style="opacity:1" fill="#647953" d="M 249.5,259.5 C 247.167,259.5 244.833,259.5 242.5,259.5C 242.5,256.833 242.5,254.167 242.5,251.5C 244.833,251.5 247.167,251.5 249.5,251.5C 249.5,254.167 249.5,256.833 249.5,259.5 Z"/></g>
<g><path style="opacity:1" fill="#c8c6c1" d="M 313.5,251.5 C 315.833,251.5 318.167,251.5 320.5,251.5C 320.5,254.167 320.5,256.833 320.5,259.5C 318.167,259.5 315.833,259.5 313.5,259.5C 313.5,256.833 313.5,254.167 313.5,251.5 Z"/></g>
<g><path style="opacity:1" fill="#656663" d="M 320.5,251.5 C 323.5,251.5 326.5,251.5 329.5,251.5C 329.5,256.5 329.5,261.5 329.5,266.5C 329.167,266.5 328.833,266.5 328.5,266.5C 327.532,264.393 327.198,262.059 327.5,259.5C 325.167,259.5 322.833,259.5 320.5,259.5C 320.5,256.833 320.5,254.167 320.5,251.5 Z"/></g>
<g><path style="opacity:1" fill="#f6f3dd" d="M 320.5,259.5 C 322.833,259.5 325.167,259.5 327.5,259.5C 327.198,262.059 327.532,264.393 328.5,266.5C 328.737,267.791 328.404,268.791 327.5,269.5C 325.721,267.656 323.388,266.99 320.5,267.5C 320.5,264.833 320.5,262.167 320.5,259.5 Z"/></g>
<g><path style="opacity:1" fill="#5b6154" d="M 142.5,275.5 C 137.5,275.5 132.5,275.5 127.5,275.5C 129.607,274.532 131.941,274.198 134.5,274.5C 134.5,272.167 134.5,269.833 134.5,267.5C 137.167,267.5 139.833,267.5 142.5,267.5C 142.5,270.167 142.5,272.833 142.5,275.5 Z"/></g>
<g><path style="opacity:1" fill="#5e704f" d="M 249.5,259.5 C 251.833,259.5 254.167,259.5 256.5,259.5C 256.5,262.167 256.5,264.833 256.5,267.5C 258.833,267.5 261.167,267.5 263.5,267.5C 263.5,270.167 263.5,272.833 263.5,275.5C 263.5,278.167 263.5,280.833 263.5,283.5C 261.167,283.5 258.833,283.5 256.5,283.5C 256.5,280.833 256.5,278.167 256.5,275.5C 254.167,275.5 251.833,275.5 249.5,275.5C 249.5,270.167 249.5,264.833 249.5,259.5 Z"/></g>
<g><path style="opacity:1" fill="#62685b" d="M 306.5,275.5 C 304.167,275.5 301.833,275.5 299.5,275.5C 299.5,278.167 299.5,280.833 299.5,283.5C 301.833,283.5 304.167,283.5 306.5,283.5C 306.5,285.833 306.5,288.167 306.5,290.5C 301.833,290.5 297.167,290.5 292.5,290.5C 292.5,288.167 292.5,285.833 292.5,283.5C 294.5,283.5 296.5,283.5 298.5,283.5C 298.5,280.833 298.5,278.167 298.5,275.5C 296.5,275.5 294.5,275.5 292.5,275.5C 292.5,272.833 292.5,270.167 292.5,267.5C 294.833,267.5 297.167,267.5 299.5,267.5C 299.5,269.833 299.5,272.167 299.5,274.5C 302.059,274.198 304.393,274.532 306.5,275.5 Z"/></g>
<g><path style="opacity:1" fill="#637752" d="M 127.5,275.5 C 132.5,275.5 137.5,275.5 142.5,275.5C 142.5,278.167 142.5,280.833 142.5,283.5C 140.167,283.5 137.833,283.5 135.5,283.5C 134.532,285.607 134.198,287.941 134.5,290.5C 132.167,290.5 129.833,290.5 127.5,290.5C 127.5,293.5 127.5,296.5 127.5,299.5C 120.5,299.5 113.5,299.5 106.5,299.5C 106.5,296.833 106.5,294.167 106.5,291.5C 106.5,291.167 106.5,290.833 106.5,290.5C 108.833,290.5 111.167,290.5 113.5,290.5C 113.5,288.167 113.5,285.833 113.5,283.5C 118.167,283.5 122.833,283.5 127.5,283.5C 127.5,280.833 127.5,278.167 127.5,275.5 Z"/></g>
<g><path style="opacity:1" fill="#647853" d="M 170.5,275.5 C 170.5,278.167 170.5,280.833 170.5,283.5C 168.167,283.5 165.833,283.5 163.5,283.5C 163.5,280.833 163.5,278.167 163.5,275.5C 165.833,275.5 168.167,275.5 170.5,275.5 Z"/></g>
<g><path style="opacity:1" fill="#647953" d="M 220.5,283.5 C 220.5,286.167 220.5,288.833 220.5,291.5C 222.833,291.5 225.167,291.5 227.5,291.5C 227.5,293.833 227.5,296.167 227.5,298.5C 222.833,298.5 218.167,298.5 213.5,298.5C 213.5,295.833 213.5,293.167 213.5,290.5C 211.167,290.5 208.833,290.5 206.5,290.5C 206.5,285.5 206.5,280.5 206.5,275.5C 208.833,275.5 211.167,275.5 213.5,275.5C 213.5,278.167 213.5,280.833 213.5,283.5C 215.833,283.5 218.167,283.5 220.5,283.5 Z"/></g>
<g><path style="opacity:1" fill="#667a54" d="M 263.5,275.5 C 268.167,275.5 272.833,275.5 277.5,275.5C 277.5,278.167 277.5,280.833 277.5,283.5C 282.167,283.5 286.833,283.5 291.5,283.5C 291.5,286.167 291.5,288.833 291.5,291.5C 296.5,291.5 301.5,291.5 306.5,291.5C 306.5,293.833 306.5,296.167 306.5,298.5C 304.157,301.207 301.823,303.874 299.5,306.5C 299.5,303.833 299.5,301.167 299.5,298.5C 294.833,298.5 290.167,298.5 285.5,298.5C 285.5,295.833 285.5,293.167 285.5,290.5C 280.5,290.5 275.5,290.5 270.5,290.5C 268.167,290.5 265.833,290.5 263.5,290.5C 263.5,288.167 263.5,285.833 263.5,283.5C 263.5,280.833 263.5,278.167 263.5,275.5 Z"/></g>
<g><path style="opacity:1" fill="#585f52" d="M 127.5,275.5 C 127.5,278.167 127.5,280.833 127.5,283.5C 122.833,283.5 118.167,283.5 113.5,283.5C 113.5,285.833 113.5,288.167 113.5,290.5C 111.167,290.5 108.833,290.5 106.5,290.5C 106.5,287.833 106.5,285.167 106.5,282.5C 111.167,282.5 115.833,282.5 120.5,282.5C 120.5,280.167 120.5,277.833 120.5,275.5C 122.833,275.5 125.167,275.5 127.5,275.5 Z"/></g>
<g><path style="opacity:1" fill="#66715c" d="M 277.5,275.5 C 279.833,275.5 282.167,275.5 284.5,275.5C 284.5,277.833 284.5,280.167 284.5,282.5C 287.385,282.194 290.052,282.527 292.5,283.5C 292.5,285.833 292.5,288.167 292.5,290.5C 297.167,290.5 301.833,290.5 306.5,290.5C 306.5,288.167 306.5,285.833 306.5,283.5C 306.5,280.833 306.5,278.167 306.5,275.5C 308.833,275.5 311.167,275.5 313.5,275.5C 313.5,277.833 313.5,280.167 313.5,282.5C 315.621,282.675 317.621,282.341 319.5,281.5C 319.672,282.492 319.338,283.158 318.5,283.5C 316.833,283.5 315.167,283.5 313.5,283.5C 313.5,285.5 313.5,287.5 313.5,289.5C 311.518,292.81 309.185,295.81 306.5,298.5C 306.5,296.167 306.5,293.833 306.5,291.5C 301.5,291.5 296.5,291.5 291.5,291.5C 291.5,288.833 291.5,286.167 291.5,283.5C 286.833,283.5 282.167,283.5 277.5,283.5C 277.5,280.833 277.5,278.167 277.5,275.5 Z"/></g>
<g><path style="opacity:1" fill="#647853" d="M 306.5,275.5 C 306.5,278.167 306.5,280.833 306.5,283.5C 304.167,283.5 301.833,283.5 299.5,283.5C 299.5,280.833 299.5,278.167 299.5,275.5C 301.833,275.5 304.167,275.5 306.5,275.5 Z"/></g>
<g><path style="opacity:1" fill="#909f83" d="M 318.5,283.5 C 316.823,285.54 315.156,287.54 313.5,289.5C 313.5,287.5 313.5,285.5 313.5,283.5C 315.167,283.5 316.833,283.5 318.5,283.5 Z"/></g>
<g><path style="opacity:1" fill="#e5e5e5" d="M 0.5,281.5 C 3.88566,284.589 6.55233,288.255 8.5,292.5C 4.28569,289.953 1.61902,286.287 0.5,281.5 Z"/></g>
<g><path style="opacity:1" fill="#575f50" d="M 85.5,291.5 C 85.5,293.833 85.5,296.167 85.5,298.5C 82.9407,298.198 80.6074,298.532 78.5,299.5C 68.8333,299.5 59.1667,299.5 49.5,299.5C 49.5,299.167 49.5,298.833 49.5,298.5C 56.8333,298.5 64.1667,298.5 71.5,298.5C 71.5,296.167 71.5,293.833 71.5,291.5C 76.1667,291.5 80.8333,291.5 85.5,291.5 Z"/></g>
<g><path style="opacity:1" fill="#5b6c4d" d="M 135.5,283.5 C 135.5,286.167 135.5,288.833 135.5,291.5C 133.167,291.5 130.833,291.5 128.5,291.5C 128.5,294.167 128.5,296.833 128.5,299.5C 133.167,299.5 137.833,299.5 142.5,299.5C 142.5,296.833 142.5,294.167 142.5,291.5C 144.833,291.5 147.167,291.5 149.5,291.5C 149.5,288.833 149.5,286.167 149.5,283.5C 154.167,283.5 158.833,283.5 163.5,283.5C 163.5,286.167 163.5,288.833 163.5,291.5C 161.167,291.5 158.833,291.5 156.5,291.5C 156.5,294.167 156.5,296.833 156.5,299.5C 156.5,301.833 156.5,304.167 156.5,306.5C 137.5,306.5 118.5,306.5 99.5,306.5C 99.5,304.167 99.5,301.833 99.5,299.5C 92.5,299.5 85.5,299.5 78.5,299.5C 80.6074,298.532 82.9407,298.198 85.5,298.5C 85.5,296.167 85.5,293.833 85.5,291.5C 92.5,291.5 99.5,291.5 106.5,291.5C 106.5,294.167 106.5,296.833 106.5,299.5C 113.5,299.5 120.5,299.5 127.5,299.5C 127.5,296.5 127.5,293.5 127.5,290.5C 129.833,290.5 132.167,290.5 134.5,290.5C 134.198,287.941 134.532,285.607 135.5,283.5 Z"/></g>
<g><path style="opacity:1" fill="#585d53" d="M 170.5,267.5 C 170.5,270.167 170.5,272.833 170.5,275.5C 168.167,275.5 165.833,275.5 163.5,275.5C 163.5,278.167 163.5,280.833 163.5,283.5C 158.833,283.5 154.167,283.5 149.5,283.5C 149.5,286.167 149.5,288.833 149.5,291.5C 147.167,291.5 144.833,291.5 142.5,291.5C 142.5,294.167 142.5,296.833 142.5,299.5C 137.833,299.5 133.167,299.5 128.5,299.5C 128.5,296.833 128.5,294.167 128.5,291.5C 130.833,291.5 133.167,291.5 135.5,291.5C 135.5,288.833 135.5,286.167 135.5,283.5C 137.833,283.5 140.167,283.5 142.5,283.5C 142.5,280.833 142.5,278.167 142.5,275.5C 144.5,275.5 146.5,275.5 148.5,275.5C 148.194,272.615 148.527,269.948 149.5,267.5C 149.5,270.167 149.5,272.833 149.5,275.5C 151.833,275.5 154.167,275.5 156.5,275.5C 156.5,272.833 156.5,270.167 156.5,267.5C 156.5,264.833 156.5,262.167 156.5,259.5C 158.833,259.5 161.167,259.5 163.5,259.5C 163.5,262.167 163.5,264.833 163.5,267.5C 165.833,267.5 168.167,267.5 170.5,267.5 Z"/></g>
<g><path style="opacity:1" fill="#647953" d="M 149.5,267.5 C 151.833,267.5 154.167,267.5 156.5,267.5C 156.5,270.167 156.5,272.833 156.5,275.5C 154.167,275.5 151.833,275.5 149.5,275.5C 149.5,272.833 149.5,270.167 149.5,267.5 Z"/></g>
<g><path style="opacity:1" fill="#5d6f4e" d="M 206.5,290.5 C 208.833,290.5 211.167,290.5 213.5,290.5C 213.5,293.167 213.5,295.833 213.5,298.5C 218.167,298.5 222.833,298.5 227.5,298.5C 232.167,298.5 236.833,298.5 241.5,298.5C 253.5,298.5 265.5,298.5 277.5,298.5C 277.5,296.167 277.5,293.833 277.5,291.5C 274.941,291.802 272.607,291.468 270.5,290.5C 275.5,290.5 280.5,290.5 285.5,290.5C 285.5,293.167 285.5,295.833 285.5,298.5C 290.167,298.5 294.833,298.5 299.5,298.5C 299.5,301.167 299.5,303.833 299.5,306.5C 263.833,306.5 228.167,306.5 192.5,306.5C 192.5,309.167 192.5,311.833 192.5,314.5C 189.833,314.5 187.167,314.5 184.5,314.5C 182.167,314.5 179.833,314.5 177.5,314.5C 177.5,317.167 177.5,319.833 177.5,322.5C 175.167,322.5 172.833,322.5 170.5,322.5C 163.5,322.5 156.5,322.5 149.5,322.5C 149.5,319.833 149.5,317.167 149.5,314.5C 154.167,314.5 158.833,314.5 163.5,314.5C 165.833,314.5 168.167,314.5 170.5,314.5C 170.5,311.833 170.5,309.167 170.5,306.5C 172.833,306.5 175.167,306.5 177.5,306.5C 177.5,304.167 177.5,301.833 177.5,299.5C 182.5,299.5 187.5,299.5 192.5,299.5C 192.5,296.833 192.5,294.167 192.5,291.5C 197.167,291.167 201.833,290.833 206.5,290.5 Z"/></g>
<g><path style="opacity:1" fill="#636b5b" d="M 220.5,283.5 C 222.833,283.5 225.167,283.5 227.5,283.5C 227.232,286.119 227.565,288.619 228.5,291C 232.821,291.499 237.154,291.666 241.5,291.5C 241.5,293.833 241.5,296.167 241.5,298.5C 236.833,298.5 232.167,298.5 227.5,298.5C 227.5,296.167 227.5,293.833 227.5,291.5C 225.167,291.5 222.833,291.5 220.5,291.5C 220.5,288.833 220.5,286.167 220.5,283.5 Z"/></g>
<g><path style="opacity:1" fill="#5d6654" d="M 163.5,291.5 C 163.5,293.833 163.5,296.167 163.5,298.5C 170.833,298.5 178.167,298.5 185.5,298.5C 185.5,296.167 185.5,293.833 185.5,291.5C 187.833,291.5 190.167,291.5 192.5,291.5C 192.5,294.167 192.5,296.833 192.5,299.5C 187.5,299.5 182.5,299.5 177.5,299.5C 170.5,299.5 163.5,299.5 156.5,299.5C 156.5,296.833 156.5,294.167 156.5,291.5C 158.833,291.5 161.167,291.5 163.5,291.5 Z"/></g>
<g><path style="opacity:1" fill="#7ca59f" d="M 14.5,299.5 C 18.8333,299.5 23.1667,299.5 27.5,299.5C 27.5,302.167 27.5,304.833 27.5,307.5C 29.8333,307.5 32.1667,307.5 34.5,307.5C 34.5,311.5 34.5,315.5 34.5,319.5C 26.8333,313.833 20.1667,307.167 14.5,299.5 Z"/></g>
<g><path style="opacity:1" fill="#598b72" d="M 49.5,299.5 C 49.5,301.833 49.5,304.167 49.5,306.5C 44.8333,306.5 40.1667,306.5 35.5,306.5C 35.5,304.167 35.5,301.833 35.5,299.5C 40.1667,299.5 44.8333,299.5 49.5,299.5 Z"/></g>
<g><path style="opacity:1" fill="#5a6b4c" d="M 49.5,299.5 C 59.1667,299.5 68.8333,299.5 78.5,299.5C 78.5,301.833 78.5,304.167 78.5,306.5C 68.8333,306.5 59.1667,306.5 49.5,306.5C 49.5,304.167 49.5,301.833 49.5,299.5 Z"/></g>
<g><path style="opacity:1" fill="#647952" d="M 78.5,299.5 C 85.5,299.5 92.5,299.5 99.5,299.5C 99.5,301.833 99.5,304.167 99.5,306.5C 94.8333,306.5 90.1667,306.5 85.5,306.5C 83.1667,306.5 80.8333,306.5 78.5,306.5C 78.5,304.167 78.5,301.833 78.5,299.5 Z"/></g>
<g><path style="opacity:1" fill="#647a52" d="M 156.5,299.5 C 163.5,299.5 170.5,299.5 177.5,299.5C 177.5,301.833 177.5,304.167 177.5,306.5C 175.167,306.5 172.833,306.5 170.5,306.5C 165.833,306.5 161.167,306.5 156.5,306.5C 156.5,304.167 156.5,301.833 156.5,299.5 Z"/></g>
<g><path style="opacity:1" fill="#6f9c94" d="M 13.5,298.5 C 18.5,298.5 23.5,298.5 28.5,298.5C 33.1667,298.5 37.8333,298.5 42.5,298.5C 44.8333,298.5 47.1667,298.5 49.5,298.5C 49.5,298.833 49.5,299.167 49.5,299.5C 44.8333,299.5 40.1667,299.5 35.5,299.5C 35.5,301.833 35.5,304.167 35.5,306.5C 40.1667,306.5 44.8333,306.5 49.5,306.5C 59.1667,306.5 68.8333,306.5 78.5,306.5C 80.8333,306.5 83.1667,306.5 85.5,306.5C 85.5,309.167 85.5,311.833 85.5,314.5C 94.8333,314.5 104.167,314.5 113.5,314.5C 118.167,314.5 122.833,314.5 127.5,314.5C 127.5,317.167 127.5,319.833 127.5,322.5C 130.167,322.5 132.833,322.5 135.5,322.5C 135.5,324.833 135.5,327.167 135.5,329.5C 105.5,329.5 75.5,329.5 45.5,329.5C 41.8333,326.167 38.1667,322.833 34.5,319.5C 34.5,315.5 34.5,311.5 34.5,307.5C 32.1667,307.5 29.8333,307.5 27.5,307.5C 27.5,304.833 27.5,302.167 27.5,299.5C 23.1667,299.5 18.8333,299.5 14.5,299.5C 13.8333,299.5 13.5,299.167 13.5,298.5 Z"/></g>
<g><path style="opacity:1" fill="#5a8c72" d="M 85.5,306.5 C 90.1667,306.5 94.8333,306.5 99.5,306.5C 118.5,306.5 137.5,306.5 156.5,306.5C 161.167,306.5 165.833,306.5 170.5,306.5C 170.5,309.167 170.5,311.833 170.5,314.5C 168.167,314.5 165.833,314.5 163.5,314.5C 163.5,312.167 163.5,309.833 163.5,307.5C 158.833,307.5 154.167,307.5 149.5,307.5C 144.833,307.5 140.167,307.5 135.5,307.5C 128.167,307.5 120.833,307.5 113.5,307.5C 113.5,309.833 113.5,312.167 113.5,314.5C 104.167,314.5 94.8333,314.5 85.5,314.5C 85.5,311.833 85.5,309.167 85.5,306.5 Z"/></g>
<g><path style="opacity:1" fill="#73ab90" d="M 135.5,307.5 C 135.5,309.833 135.5,312.167 135.5,314.5C 135.5,317.167 135.5,319.833 135.5,322.5C 132.833,322.5 130.167,322.5 127.5,322.5C 127.5,319.833 127.5,317.167 127.5,314.5C 122.833,314.5 118.167,314.5 113.5,314.5C 113.5,312.167 113.5,309.833 113.5,307.5C 120.833,307.5 128.167,307.5 135.5,307.5 Z"/></g>
<g><path style="opacity:1" fill="#6e9e92" d="M 135.5,307.5 C 140.167,307.5 144.833,307.5 149.5,307.5C 149.5,309.833 149.5,312.167 149.5,314.5C 144.833,314.5 140.167,314.5 135.5,314.5C 135.5,312.167 135.5,309.833 135.5,307.5 Z"/></g>
<g><path style="opacity:1" fill="#74ab91" d="M 149.5,307.5 C 154.167,307.5 158.833,307.5 163.5,307.5C 163.5,309.833 163.5,312.167 163.5,314.5C 158.833,314.5 154.167,314.5 149.5,314.5C 149.5,312.167 149.5,309.833 149.5,307.5 Z"/></g>
<g><path style="opacity:1" fill="#75ae91" d="M 220.5,307.5 C 220.5,309.833 220.5,312.167 220.5,314.5C 218.167,314.5 215.833,314.5 213.5,314.5C 213.5,317.167 213.5,319.833 213.5,322.5C 211.167,322.5 208.833,322.5 206.5,322.5C 206.5,319.833 206.5,317.167 206.5,314.5C 206.5,312.167 206.5,309.833 206.5,307.5C 211.167,307.5 215.833,307.5 220.5,307.5 Z"/></g>
<g><path style="opacity:1" fill="#5c8d74" d="M 299.5,306.5 C 297.167,309.5 294.5,312.167 291.5,314.5C 289.167,314.5 286.833,314.5 284.5,314.5C 284.5,312.167 284.5,309.833 284.5,307.5C 277.5,307.5 270.5,307.5 263.5,307.5C 263.5,309.833 263.5,312.167 263.5,314.5C 261.167,314.5 258.833,314.5 256.5,314.5C 246.833,314.5 237.167,314.5 227.5,314.5C 227.5,312.167 227.5,309.833 227.5,307.5C 225.167,307.5 222.833,307.5 220.5,307.5C 215.833,307.5 211.167,307.5 206.5,307.5C 206.5,309.833 206.5,312.167 206.5,314.5C 201.833,314.5 197.167,314.5 192.5,314.5C 192.5,311.833 192.5,309.167 192.5,306.5C 228.167,306.5 263.833,306.5 299.5,306.5 Z"/></g>
<g><path style="opacity:1" fill="#73ab90" d="M 284.5,314.5 C 278.095,313.406 275.762,316.073 277.5,322.5C 272.833,322.5 268.167,322.5 263.5,322.5C 263.5,324.833 263.5,327.167 263.5,329.5C 258.833,329.5 254.167,329.5 249.5,329.5C 249.5,327.167 249.5,324.833 249.5,322.5C 251.792,322.244 253.959,322.577 256,323.5C 256.498,320.518 256.665,317.518 256.5,314.5C 258.833,314.5 261.167,314.5 263.5,314.5C 263.5,312.167 263.5,309.833 263.5,307.5C 270.5,307.5 277.5,307.5 284.5,307.5C 284.5,309.833 284.5,312.167 284.5,314.5 Z"/></g>
<g><path style="opacity:1" fill="#72a097" d="M 220.5,307.5 C 222.833,307.5 225.167,307.5 227.5,307.5C 227.5,309.833 227.5,312.167 227.5,314.5C 237.167,314.5 246.833,314.5 256.5,314.5C 256.665,317.518 256.498,320.518 256,323.5C 253.959,322.577 251.792,322.244 249.5,322.5C 249.5,324.833 249.5,327.167 249.5,329.5C 223.167,329.5 196.833,329.5 170.5,329.5C 170.5,327.167 170.5,324.833 170.5,322.5C 172.833,322.5 175.167,322.5 177.5,322.5C 179.833,322.5 182.167,322.5 184.5,322.5C 184.5,319.833 184.5,317.167 184.5,314.5C 187.167,314.5 189.833,314.5 192.5,314.5C 197.167,314.5 201.833,314.5 206.5,314.5C 206.5,317.167 206.5,319.833 206.5,322.5C 208.833,322.5 211.167,322.5 213.5,322.5C 213.5,319.833 213.5,317.167 213.5,314.5C 215.833,314.5 218.167,314.5 220.5,314.5C 220.5,312.167 220.5,309.833 220.5,307.5 Z"/></g>
<g><path style="opacity:1" fill="#598c73" d="M 135.5,314.5 C 140.167,314.5 144.833,314.5 149.5,314.5C 149.5,317.167 149.5,319.833 149.5,322.5C 144.833,322.5 140.167,322.5 135.5,322.5C 135.5,319.833 135.5,317.167 135.5,314.5 Z"/></g>
<g><path style="opacity:1" fill="#598a70" d="M 184.5,314.5 C 184.5,317.167 184.5,319.833 184.5,322.5C 182.167,322.5 179.833,322.5 177.5,322.5C 177.5,319.833 177.5,317.167 177.5,314.5C 179.833,314.5 182.167,314.5 184.5,314.5 Z"/></g>
<g><path style="opacity:1" fill="#80aba0" d="M 284.5,314.5 C 286.833,314.5 289.167,314.5 291.5,314.5C 286.021,319.735 280.354,324.735 274.5,329.5C 270.833,329.5 267.167,329.5 263.5,329.5C 263.5,327.167 263.5,324.833 263.5,322.5C 268.167,322.5 272.833,322.5 277.5,322.5C 275.762,316.073 278.095,313.406 284.5,314.5 Z"/></g>
<g><path style="opacity:1" fill="#70a192" d="M 135.5,322.5 C 140.167,322.5 144.833,322.5 149.5,322.5C 156.5,322.5 163.5,322.5 170.5,322.5C 170.5,324.833 170.5,327.167 170.5,329.5C 158.833,329.5 147.167,329.5 135.5,329.5C 135.5,327.167 135.5,324.833 135.5,322.5 Z"/></g>
</svg>
